<svg t="1740972045495" class="icon" viewBox="0 0 1024 1024" version="1.1" xmlns="http://www.w3.org/2000/svg" p-id="4555"
    width="200" height="200">
    <path
        d="M459.264 512L604.16 367.104c14.848-14.848 14.848-38.912 0-53.76-14.848-14.848-38.912-14.848-53.76 0l-168.448 168.96c-1.024 1.024-2.048 1.536-3.072 2.56-7.168 7.168-11.264 17.408-11.264 27.136s3.584 19.456 11.264 27.136c1.024 1.024 2.048 2.048 3.072 2.56l168.448 168.448c14.848 14.848 38.912 14.848 53.76 0 14.848-14.848 14.848-38.912 0-53.76L459.264 512z"
        fill="#333333" p-id="4556"></path>
    <path
        d="M512 1024c-136.704 0-265.728-53.248-361.984-150.016S0 648.704 0 512s53.248-265.728 150.016-361.984c199.68-199.68 524.8-199.68 724.48 0s199.68 524.8 0 724.48c-96.768 96.256-225.28 149.504-362.496 149.504z m0-947.712c-111.616 0-223.232 42.496-307.712 127.488C121.856 286.208 76.8 395.264 76.8 512s45.056 225.792 127.488 307.712c82.432 82.432 191.488 128 307.712 127.488 116.736 0 225.792-45.056 307.712-127.488 169.984-169.984 169.984-445.952 0-615.936-84.48-84.48-196.096-127.488-307.712-127.488z"
        fill="#33333" p-id="4557"></path>
</svg>