<svg width="352" height="172" viewBox="0 0 352 172" fill="none" xmlns="http://www.w3.org/2000/svg">
<g filter="url(#filter0_d_156_892)">
<mask id="mask0_156_892" style="mask-type:alpha" maskUnits="userSpaceOnUse" x="4" y="0" width="344" height="164">
<rect x="4.5" width="343" height="164" rx="24" fill="url(#paint0_linear_156_892)"/>
</mask>
<g mask="url(#mask0_156_892)">
<rect x="4.5" width="343" height="164" rx="24" fill="#201E1E"/>
<path opacity="0.05" d="M398.336 -67.0594L355.682 -65.8385L115.746 167.88L299.244 162.628L415.154 41.5289L398.336 -67.0594Z" fill="url(#paint1_linear_156_892)"/>
<path opacity="0.05" d="M299.243 162.628L415.153 41.5291L400.469 -10.7956L231.753 164.56L299.243 162.628Z" fill="url(#paint2_linear_156_892)"/>
<path opacity="0.05" d="M-22.7714 208.935H35.7361L279.32 -25.2203H102.11L-22.7714 96.3537V208.935Z" fill="url(#paint3_linear_156_892)"/>
<path opacity="0.05" d="M101.92 -25.2204L-22.7724 96.2341V150.624L158.692 -25.2204H101.92Z" fill="url(#paint4_linear_156_892)"/>
</g>
<path d="M275.5 85C275.5 75.0589 283.559 67 293.5 67H347.5V103H293.5C283.559 103 275.5 94.9411 275.5 85Z" fill="#45E1B8"/>
</g>
<defs>
<filter id="filter0_d_156_892" x="0.5" y="0" width="351" height="172" filterUnits="userSpaceOnUse" color-interpolation-filters="sRGB">
<feFlood flood-opacity="0" result="BackgroundImageFix"/>
<feColorMatrix in="SourceAlpha" type="matrix" values="0 0 0 0 0 0 0 0 0 0 0 0 0 0 0 0 0 0 127 0" result="hardAlpha"/>
<feOffset dy="4"/>
<feGaussianBlur stdDeviation="2"/>
<feComposite in2="hardAlpha" operator="out"/>
<feColorMatrix type="matrix" values="0 0 0 0 0 0 0 0 0 0 0 0 0 0 0 0 0 0 0.25 0"/>
<feBlend mode="normal" in2="BackgroundImageFix" result="effect1_dropShadow_156_892"/>
<feBlend mode="normal" in="SourceGraphic" in2="effect1_dropShadow_156_892" result="shape"/>
</filter>
<linearGradient id="paint0_linear_156_892" x1="4.49998" y1="198.137" x2="281.675" y2="-174.286" gradientUnits="userSpaceOnUse">
<stop stop-color="#985CFA"/>
<stop offset="0.555211" stop-color="#458CF9"/>
<stop offset="1" stop-color="#35C3F0"/>
</linearGradient>
<linearGradient id="paint1_linear_156_892" x1="465.973" y1="-129.546" x2="244.631" y2="189.708" gradientUnits="userSpaceOnUse">
<stop stop-color="white"/>
<stop offset="0.833345" stop-color="white"/>
<stop offset="1" stop-color="white" stop-opacity="0"/>
</linearGradient>
<linearGradient id="paint2_linear_156_892" x1="492.605" y1="-59.9051" x2="277.678" y2="147.614" gradientUnits="userSpaceOnUse">
<stop stop-color="white"/>
<stop offset="0.742185" stop-color="white"/>
<stop offset="1" stop-color="white" stop-opacity="0"/>
</linearGradient>
<linearGradient id="paint3_linear_156_892" x1="-95.3229" y1="271.436" x2="91.6835" y2="-62.6726" gradientUnits="userSpaceOnUse">
<stop stop-color="white"/>
<stop offset="0.833345" stop-color="white"/>
<stop offset="1" stop-color="white" stop-opacity="0"/>
</linearGradient>
<linearGradient id="paint4_linear_156_892" x1="-120.04" y1="198.546" x2="111.578" y2="-9.23917" gradientUnits="userSpaceOnUse">
<stop stop-color="white"/>
<stop offset="0.775314" stop-color="white"/>
<stop offset="1" stop-color="white" stop-opacity="0"/>
</linearGradient>
</defs>
</svg>
