<svg width="343" height="426" viewBox="0 0 343 426" fill="none" xmlns="http://www.w3.org/2000/svg">
<path fill-rule="evenodd" clip-rule="evenodd" d="M132.874 0H105.063V3.9123C106.327 4.86157 107.123 6.24107 107.123 7.77647C107.123 10.6396 104.356 12.9607 100.943 12.9607C97.5297 12.9607 94.7627 10.6396 94.7627 7.77647C94.7627 6.24107 95.5584 4.86157 96.8228 3.9123V0H69.012V3.9123C70.2763 4.86157 71.072 6.24107 71.072 7.77647C71.072 10.6396 68.3051 12.9607 64.8919 12.9607C61.4786 12.9607 58.7117 10.6396 58.7117 7.77647C58.7117 6.24107 59.5074 4.86157 60.7717 3.9123V0H32.9609V3.9123C34.2253 4.86157 35.021 6.24107 35.021 7.77647C35.021 10.6396 32.254 12.9607 28.8408 12.9607C25.4276 12.9607 22.6606 10.6396 22.6606 7.77647C22.6606 6.24107 23.4563 4.86157 24.7207 3.9123V0H11C4.92487 0 0 4.92487 0 11V414.108C0 420.183 4.92487 425.108 11 425.108H332C338.075 425.108 343 420.183 343 414.108V11C343 4.92487 338.075 0 332 0H321.369V3.91193C322.634 4.86121 323.43 6.24087 323.43 7.77647C323.43 10.6396 320.663 12.9607 317.25 12.9607C313.836 12.9607 311.069 10.6396 311.069 7.77647C311.069 6.24127 311.865 4.86193 313.129 3.91267V0H285.318V3.91229C286.583 4.86156 287.378 6.24107 287.378 7.77647C287.378 10.6396 284.611 12.9607 281.198 12.9607C277.785 12.9607 275.018 10.6396 275.018 7.77647C275.018 6.24107 275.814 4.86157 277.078 3.9123V0H249.267V3.91229C250.532 4.86156 251.327 6.24107 251.327 7.77647C251.327 10.6396 248.56 12.9607 245.147 12.9607C241.734 12.9607 238.967 10.6396 238.967 7.77647C238.967 6.24107 239.763 4.86157 241.027 3.9123V0H213.216V3.91229C214.481 4.86156 215.276 6.24107 215.276 7.77647C215.276 10.6396 212.509 12.9607 209.096 12.9607C205.683 12.9607 202.916 10.6396 202.916 7.77647C202.916 6.24107 203.712 4.86157 204.976 3.9123V0H177.165V3.91229C178.429 4.86156 179.225 6.24107 179.225 7.77647C179.225 10.6396 176.458 12.9607 173.045 12.9607C169.632 12.9607 166.865 10.6396 166.865 7.77647C166.865 6.24107 167.66 4.86157 168.925 3.9123V0H141.114V3.91229C142.378 4.86156 143.174 6.24107 143.174 7.77647C143.174 10.6396 140.407 12.9607 136.994 12.9607C133.581 12.9607 130.814 10.6396 130.814 7.77647C130.814 6.24107 131.609 4.86157 132.874 3.9123V0Z" fill="white"/>
</svg>
