<svg width="60" height="22" viewBox="0 0 60 22" fill="none" xmlns="http://www.w3.org/2000/svg">
<rect x="0.393555" y="14.5474" width="51.3792" height="7.22729" fill="#DAF9F1"/>
<path d="M13.7052 12.3027H7.36917C7.23717 12.7227 7.10517 13.1187 6.99717 13.5027H11.9292L12.1212 13.4427L12.9612 13.9467C12.1332 14.8347 11.0052 15.9507 9.93717 16.9707C10.6452 17.2467 11.2932 17.5347 11.7612 17.7987L11.1012 18.7707C9.91317 18.0507 7.46517 17.0907 5.60517 16.5747L6.21717 15.7347C7.00917 15.9387 7.90917 16.2147 8.79717 16.5387C9.49317 15.8787 10.2372 15.1587 10.8492 14.5467H5.40117C5.64117 13.9107 5.90517 13.1427 6.18117 12.3027H3.25317V11.2347H6.51717C6.63717 10.8267 6.76917 10.4067 6.88917 9.99866H4.21317V8.93066H7.17717C7.28517 8.51066 7.39317 8.10266 7.48917 7.71866H8.67717C8.56917 8.10266 8.46117 8.52266 8.34117 8.93066H12.8412V9.99866H8.05317C7.92117 10.4067 7.80117 10.8267 7.68117 11.2347H13.7052V12.3027ZM22.1652 9.81866L21.2172 10.2987C21.0372 9.75866 20.5572 8.89466 20.1252 8.25866L21.0132 7.85066C21.4572 8.46266 21.9492 9.29066 22.1652 9.81866ZM25.5852 10.3227V11.3907H19.5252V10.3227H22.8372C23.2812 9.61466 23.7732 8.54666 24.0492 7.76666L25.1652 8.10266C24.7932 8.84666 24.3612 9.67466 23.9652 10.3227H25.5852ZM25.0452 14.6667H20.0172V13.6107H25.0452V14.6667ZM19.3692 13.5387L18.6372 14.4147C18.4812 14.0307 18.1452 13.4187 17.8452 12.8427V18.7227H16.7772V13.5867C16.4172 14.7027 15.9612 15.7347 15.4932 16.4187C15.3852 16.0947 15.1332 15.6027 14.9412 15.3027C15.6972 14.3547 16.4052 12.5547 16.7532 11.0067H15.3012V9.97466H16.7772V7.71866H17.8452V9.97466H19.1532V11.0067H17.8452V11.3427C18.1932 11.7867 19.1532 13.1907 19.3692 13.5387ZM19.0332 17.0667H25.9212V18.1347H19.0332V17.0667ZM29.7852 9.54266H29.1972C28.8252 10.1067 28.4292 10.6107 28.0332 10.9947C27.8172 10.8147 27.3732 10.5267 27.1092 10.3827C27.9012 9.73466 28.5852 8.71466 28.9692 7.67066L30.0132 7.93466C29.9172 8.17466 29.8212 8.40266 29.7132 8.63066H32.4732V9.54266H30.9132C31.1052 9.90266 31.2852 10.2627 31.3812 10.5387L30.4212 10.9347C30.3132 10.5747 30.0372 9.99866 29.7852 9.54266ZM27.7812 18.7107V12.3747H28.8732V18.7107H27.7812ZM28.4292 11.1867L29.2572 10.6467C29.7252 11.0787 30.2532 11.6787 30.4812 12.0987L29.6052 12.6747C29.3892 12.2547 28.8852 11.6307 28.4292 11.1867ZM33.8892 13.7787H31.2012V14.5827H33.8892V13.7787ZM31.2012 16.2267H33.8892V15.3747H31.2012V16.2267ZM34.9452 17.0787H31.2012V17.6547H30.1932V12.9267H34.9452V17.0787ZM37.3332 10.9947V17.4627C37.3332 18.0747 37.1772 18.3747 36.7332 18.5187C36.2772 18.6867 35.5572 18.6867 34.4772 18.6867C34.4172 18.4107 34.2612 17.9787 34.1172 17.7147C34.8732 17.7507 35.7132 17.7507 35.9292 17.7267C36.1692 17.7267 36.2412 17.6667 36.2412 17.4627V11.9907H30.7932V10.9947H37.3332ZM34.4892 8.61866H37.7532V9.54266H35.9652C36.1932 9.87866 36.3972 10.2147 36.5052 10.4787L35.5452 10.9227C35.4012 10.5627 35.0892 10.0107 34.7772 9.54266H34.0332C33.7452 10.0347 33.4332 10.4787 33.0972 10.8147C32.8932 10.6347 32.4372 10.3347 32.1852 10.1907C32.8572 9.57866 33.3972 8.64266 33.6852 7.69466L34.7412 7.93466C34.6812 8.17466 34.5852 8.39066 34.4892 8.61866ZM41.7972 13.9227V12.4947H42.9612V13.9467C42.9612 15.5307 42.6972 17.4267 40.3212 18.7467C40.1292 18.4827 39.6972 18.0987 39.3972 17.9067C41.5572 16.7667 41.7972 15.2307 41.7972 13.9227ZM46.2492 18.7467V12.4827H47.4252V18.7467H46.2492ZM44.5092 7.59866L45.4092 8.23466C45.3492 8.34266 45.2772 8.43866 45.2052 8.53466C46.2732 9.92666 48.2652 11.1747 50.2692 11.7147C50.0052 11.9667 49.6452 12.4467 49.4772 12.7587C47.5692 12.1347 45.7812 10.8747 44.5452 9.38666C43.2612 10.8747 41.4132 12.1947 39.5772 12.9267C39.4332 12.6027 39.1572 12.1347 38.8932 11.8587C41.1492 11.1387 43.4172 9.41066 44.5092 7.59866Z" fill="#201E1E"/>
</svg>
