<svg width="60" height="22" viewBox="0 0 60 22" fill="none" xmlns="http://www.w3.org/2000/svg">
<rect x="0.393555" y="14.5474" width="51.3792" height="7.22729" fill="#DAF9F1"/>
<path d="M10.8492 10.8507H6.19317C6.76917 12.2667 7.57317 13.5027 8.59317 14.5587C9.56517 13.5507 10.3092 12.3267 10.8492 10.8507ZM13.9572 10.8507H12.0972C11.4612 12.6627 10.5732 14.1267 9.44517 15.3267C10.7292 16.3707 12.2892 17.1507 14.1372 17.6067C13.8852 17.8467 13.5612 18.3147 13.3812 18.6387C11.4732 18.1227 9.87717 17.2707 8.58117 16.1427C7.24917 17.2707 5.61717 18.1107 3.67317 18.7107C3.54117 18.4227 3.20517 17.9067 2.97717 17.6427C4.90917 17.1267 6.48117 16.3827 7.75317 15.3387C6.58917 14.1027 5.70117 12.6027 5.02917 10.8507H3.18117V9.77066H8.37717C8.23317 9.27866 7.89717 8.52266 7.57317 7.95866L8.74917 7.61066C9.09717 8.17466 9.48117 8.94266 9.63717 9.43466L8.56917 9.77066H13.9572V10.8507ZM22.3212 9.49466H18.7212C18.9492 9.81866 19.1412 10.2507 19.2732 10.5867H21.8172C21.9972 10.2387 22.2012 9.83066 22.3212 9.49466ZM25.9092 10.5867V11.4747H15.1812V10.5867H18.0612C17.9412 10.2867 17.7972 9.97466 17.6532 9.71066L18.6012 9.49466H15.9612V8.60666H20.0532C19.9332 8.31866 19.7892 8.04266 19.6572 7.79066L20.7732 7.55066C20.9532 7.86266 21.1572 8.27066 21.3012 8.60666H25.1772V9.49466H22.5852L23.5212 9.67466C23.3412 10.0107 23.1732 10.3107 23.0292 10.5867H25.9092ZM17.5812 14.2467V14.9787H23.4732V14.2467H17.5812ZM17.5812 12.7947V13.5147H23.4732V12.7947H17.5812ZM25.9212 16.4667V17.3787H21.1092V18.7227H19.9332V17.3787H15.1572V16.4667H19.9332V15.7587H16.4892V12.0267H24.6132V15.7587H21.1092V16.4667H25.9212ZM37.3932 9.72266V17.3547C37.3932 18.0147 37.2372 18.3507 36.7932 18.5307C36.3492 18.7227 35.6052 18.7347 34.5492 18.7347C34.5012 18.4227 34.3212 17.9067 34.1652 17.6067C34.9452 17.6427 35.7612 17.6427 35.9892 17.6307C36.2172 17.6187 36.2892 17.5587 36.2892 17.3427V10.8027H33.1212C33.0972 11.2707 33.0372 11.7627 32.9292 12.2787C34.0332 13.2747 35.4132 14.5947 36.1092 15.4467L35.1972 16.1787C34.6452 15.4467 33.5772 14.3187 32.5812 13.3587C32.1132 14.4507 31.2732 15.5067 29.7972 16.3707C29.6532 16.1307 29.2692 15.7347 29.0052 15.5307C31.5012 14.2107 31.9092 12.3387 31.9692 10.8027H28.8492V18.7467H27.7332V9.72266H31.9812V7.70666H33.1332V9.72266H37.3932ZM40.6332 9.75866V11.0787H39.5412V8.75066H44.0652C43.9452 8.45066 43.8012 8.13866 43.6572 7.86266L44.8092 7.61066C45.0132 7.94666 45.2412 8.39066 45.3852 8.75066H49.5492V11.0787H48.4212V9.75866H40.6332ZM45.4332 10.8267L46.2012 10.1907C47.2452 10.8147 48.6012 11.7747 49.2612 12.4467L48.4572 13.1667C47.8332 12.5067 46.5132 11.4987 45.4332 10.8267ZM42.4812 10.1787L43.5252 10.5387C42.7572 11.5827 41.5452 12.5787 40.4532 13.1907C40.2972 12.9867 39.9132 12.5427 39.6852 12.3507C40.7412 11.8467 41.8332 11.0307 42.4812 10.1787ZM42.4092 14.7027H46.9092C46.0692 14.1627 45.3132 13.5387 44.5812 12.7587C43.9572 13.4787 43.2132 14.1387 42.4092 14.7027ZM42.2652 17.3667H46.8012V15.6867H42.2652V17.3667ZM44.4012 11.2587L45.3732 11.6787C45.3132 11.7867 45.2412 11.8827 45.1692 11.9787C46.5132 13.4427 48.1572 14.3547 50.0532 15.0627C49.7892 15.3027 49.4892 15.6747 49.3332 15.9867C48.8532 15.7827 48.3852 15.5427 47.9412 15.3147V18.6867H46.8012V18.3507H42.2652V18.7227H41.1732V15.4587C40.7052 15.7107 40.2132 15.9507 39.7212 16.1427C39.5652 15.8667 39.2652 15.4827 39.0132 15.2427C41.2092 14.4627 43.2852 13.0347 44.4012 11.2587Z" fill="#201E1E"/>
</svg>
