<svg width="24" height="24" viewBox="0 0 24 24" fill="none" xmlns="http://www.w3.org/2000/svg">
<circle cx="9.5" cy="12.5" r="4.5" fill="#45E1B8"/>
<path d="M5 17C5 14.352 5 8.0625 5 8.0625C5 6.92341 5.95939 6 7.14286 6H15V14.9375C15 14.9375 9.01164 14.9375 7.14286 14.9375C5.96429 14.9375 5 15.8602 5 17Z" stroke="#252525" stroke-width="1.3" stroke-linejoin="round"/>
<path d="M15.7059 15C15.7059 15 7.73524 15 7.29412 15C6.02711 15 5 16.1193 5 17.5C5 18.8807 6.02711 20 7.29412 20C8.13877 20 12.2172 20 18 20V5" stroke="#252525" stroke-width="1.3" stroke-linecap="round" stroke-linejoin="round"/>
</svg>
