<svg width="25" height="24" viewBox="0 0 25 24" fill="none" xmlns="http://www.w3.org/2000/svg">
<circle cx="13" cy="13.5" r="5.5" fill="#45E1B8"/>
<path d="M19.85 12C19.85 16.0593 16.5593 19.35 12.5 19.35C8.44068 19.35 5.15 16.0593 5.15 12C5.15 7.94069 8.44069 4.65 12.5 4.65C16.5593 4.65 19.85 7.94068 19.85 12Z" stroke="#252525" stroke-width="1.3" stroke-linejoin="round"/>
<mask id="path-3-inside-1_145_547" fill="white">
<path d="M19.4877 8C21.6613 8.17359 23.1529 8.78386 23.4474 9.78977C24.0365 11.8018 19.6127 14.6349 13.5666 16.1175C7.5206 17.6001 2.14173 17.1709 1.55263 15.1588C1.24398 14.1046 2.31137 12.8251 4.26718 11.6325"/>
</mask>
<path d="M19.5912 6.70413C18.8755 6.64697 18.249 7.18081 18.1918 7.8965C18.1347 8.6122 18.6685 9.23871 19.3842 9.29587L19.5912 6.70413ZM23.4474 9.78977L24.695 9.42449L24.695 9.42448L23.4474 9.78977ZM13.5666 16.1175L13.257 14.8549L13.257 14.8549L13.5666 16.1175ZM1.55263 15.1588L0.305007 15.5241L0.305008 15.5241L1.55263 15.1588ZM4.94397 12.7424C5.55697 12.3686 5.75089 11.5687 5.37711 10.9557C5.00333 10.3427 4.20338 10.1488 3.59038 10.5226L4.94397 12.7424ZM19.3842 9.29587C20.392 9.37636 21.1496 9.55298 21.6483 9.77256C21.8937 9.8806 22.0408 9.98356 22.1219 10.0594C22.1607 10.0957 22.1806 10.1223 22.19 10.1368C22.1947 10.144 22.1971 10.1489 22.1983 10.1514C22.1994 10.1538 22.1997 10.1549 22.1997 10.1551L24.695 9.42448C24.3929 8.39253 23.5389 7.7641 22.696 7.39297C21.8319 7.01254 20.757 6.79723 19.5912 6.70413L19.3842 9.29587ZM22.1997 10.155C22.1998 10.1552 22.1998 10.155 22.1998 10.1552C22.1998 10.1553 22.2 10.1571 22.2 10.1611C22.1999 10.1688 22.1987 10.1902 22.188 10.2281C22.1656 10.3084 22.1051 10.4472 21.9601 10.6417C21.6635 11.0394 21.119 11.5291 20.2941 12.0574C18.6572 13.1057 16.1819 14.1377 13.257 14.8549L13.8762 17.3801C16.9975 16.6147 19.757 15.4888 21.6963 14.2469C22.6594 13.6301 23.4883 12.9416 24.0444 12.196C24.5947 11.4581 25.0037 10.4789 24.695 9.42449L22.1997 10.155ZM13.257 14.8549C10.3336 15.5718 7.62006 15.8126 5.61669 15.6528C4.60866 15.5723 3.85077 15.3957 3.35187 15.1761C3.10638 15.068 2.95926 14.965 2.87817 14.8892C2.83932 14.8528 2.81939 14.8263 2.81002 14.8118C2.80533 14.8045 2.80288 14.7997 2.80174 14.7972C2.80062 14.7948 2.8003 14.7937 2.80026 14.7935L0.305008 15.5241C0.607188 16.5562 1.46129 17.1846 2.30438 17.5558C3.16864 17.9362 4.2438 18.1515 5.40988 18.2445C7.75472 18.4316 10.7536 18.1458 13.8762 17.3801L13.257 14.8549ZM2.80026 14.7935C2.80023 14.7934 2.80025 14.7935 2.80022 14.7933C2.80019 14.7931 2.79991 14.7909 2.80003 14.7861C2.80026 14.777 2.80216 14.7522 2.8153 14.709C2.84318 14.6173 2.91562 14.4633 3.08234 14.2515C3.42212 13.8197 4.03483 13.2968 4.94397 12.7424L3.59038 10.5226C2.54372 11.1608 1.64483 11.8739 1.03913 12.6436C0.444655 13.399 -0.0186553 14.4186 0.305007 15.5241L2.80026 14.7935Z" fill="#252525" mask="url(#path-3-inside-1_145_547)"/>
</svg>
