<svg width="24" height="24" viewBox="0 0 24 24" fill="none" xmlns="http://www.w3.org/2000/svg">
<path d="M19.35 12C19.35 16.0593 16.0593 19.35 12 19.35C7.94068 19.35 4.65 16.0593 4.65 12C4.65 7.94069 7.94069 4.65 12 4.65C16.0593 4.65 19.35 7.94068 19.35 12Z" stroke="#B5B5B5" stroke-width="1.3" stroke-linejoin="round"/>
<mask id="path-2-inside-1_135_768" fill="white">
<path d="M18.9877 8C21.1613 8.17359 22.6529 8.78386 22.9474 9.78977C23.5365 11.8018 19.1127 14.6349 13.0666 16.1175C7.0206 17.6001 1.64173 17.1709 1.05263 15.1588C0.743984 14.1046 1.81137 12.8251 3.76718 11.6325"/>
</mask>
<path d="M19.0912 6.70413C18.3755 6.64697 17.749 7.18081 17.6918 7.8965C17.6347 8.6122 18.1685 9.23871 18.8842 9.29587L19.0912 6.70413ZM22.9474 9.78977L24.195 9.42449L24.195 9.42448L22.9474 9.78977ZM13.0666 16.1175L12.757 14.8549L12.757 14.8549L13.0666 16.1175ZM1.05263 15.1588L-0.194993 15.5241L-0.194992 15.5241L1.05263 15.1588ZM4.44397 12.7424C5.05697 12.3686 5.25089 11.5687 4.87711 10.9557C4.50333 10.3427 3.70338 10.1488 3.09038 10.5226L4.44397 12.7424ZM18.8842 9.29587C19.892 9.37636 20.6496 9.55298 21.1483 9.77256C21.3937 9.8806 21.5408 9.98356 21.6219 10.0594C21.6607 10.0957 21.6806 10.1223 21.69 10.1368C21.6947 10.144 21.6971 10.1489 21.6983 10.1514C21.6994 10.1538 21.6997 10.1549 21.6997 10.1551L24.195 9.42448C23.8929 8.39253 23.0389 7.7641 22.196 7.39297C21.3319 7.01254 20.257 6.79723 19.0912 6.70413L18.8842 9.29587ZM21.6997 10.155C21.6998 10.1552 21.6998 10.155 21.6998 10.1552C21.6998 10.1553 21.7 10.1571 21.7 10.1611C21.6999 10.1688 21.6987 10.1902 21.688 10.2281C21.6656 10.3084 21.6051 10.4472 21.4601 10.6417C21.1635 11.0394 20.619 11.5291 19.7941 12.0574C18.1572 13.1057 15.6819 14.1377 12.757 14.8549L13.3762 17.3801C16.4975 16.6147 19.257 15.4888 21.1963 14.2469C22.1594 13.6301 22.9883 12.9416 23.5444 12.196C24.0947 11.4581 24.5037 10.4789 24.195 9.42449L21.6997 10.155ZM12.757 14.8549C9.83362 15.5718 7.12006 15.8126 5.11669 15.6528C4.10866 15.5723 3.35077 15.3957 2.85187 15.1761C2.60638 15.068 2.45926 14.965 2.37817 14.8892C2.33932 14.8528 2.31939 14.8263 2.31002 14.8118C2.30533 14.8045 2.30288 14.7997 2.30174 14.7972C2.30062 14.7948 2.3003 14.7937 2.30026 14.7935L-0.194992 15.5241C0.107188 16.5562 0.96129 17.1846 1.80438 17.5558C2.66864 17.9362 3.7438 18.1515 4.90988 18.2445C7.25472 18.4316 10.2536 18.1458 13.3762 17.3801L12.757 14.8549ZM2.30026 14.7935C2.30023 14.7934 2.30025 14.7935 2.30022 14.7933C2.30019 14.7931 2.29991 14.7909 2.30003 14.7861C2.30026 14.777 2.30216 14.7522 2.3153 14.709C2.34318 14.6173 2.41562 14.4633 2.58234 14.2515C2.92212 13.8197 3.53483 13.2968 4.44397 12.7424L3.09038 10.5226C2.04372 11.1608 1.14483 11.8739 0.539129 12.6436C-0.0553449 13.399 -0.518655 14.4186 -0.194993 15.5241L2.30026 14.7935Z" fill="#B5B5B5" mask="url(#path-2-inside-1_135_768)"/>
</svg>
