<svg width="516" height="383" viewBox="0 0 516 383" fill="none" xmlns="http://www.w3.org/2000/svg">
<path d="M234.96 184.328C240.363 190.257 245.163 188.428 245.163 188.428C252.154 184.214 245.723 179.997 245.723 179.997C229.474 171.301 215.89 187.437 215.89 187.437C215.89 187.437 229.482 178.451 234.96 184.328ZM350.513 141.837C359.182 125.425 326.029 124.414 326.029 124.414C330.645 128.647 334.268 133.84 336.647 139.635C344.257 152.478 350.513 141.837 350.513 141.837Z" fill="#ACEAC7"/>
<path d="M484.991 120.969C485.106 120.482 485.105 120.482 485.105 120.482L485.104 120.482L485.102 120.481L485.096 120.48L485.074 120.475C485.056 120.471 485.03 120.466 484.997 120.459C484.931 120.445 484.836 120.427 484.718 120.408C484.482 120.369 484.15 120.325 483.761 120.3C482.992 120.252 481.962 120.282 481.011 120.626C480.044 120.976 479.144 121.661 478.723 122.906C478.31 124.123 478.383 125.796 479.15 128.077L479.162 128.111L479.178 128.143C481.696 133.126 483.783 138.317 485.419 143.658C486.084 146.473 487.113 147.989 488.036 148.803C488.497 149.21 488.923 149.434 489.247 149.556C489.409 149.617 489.543 149.652 489.643 149.672C489.648 149.673 489.653 149.674 489.657 149.675L489.72 149.695L489.723 149.686C489.723 149.686 489.723 149.687 489.724 149.687C489.721 149.695 489.721 149.695 489.721 149.695L489.722 149.696L489.725 149.696L489.732 149.699L489.753 149.705C489.77 149.71 489.792 149.716 489.821 149.723C489.877 149.737 489.955 149.754 490.052 149.77C490.244 149.802 490.514 149.829 490.829 149.813C491.465 149.78 492.293 149.568 493.042 148.862C494.523 147.465 495.514 144.31 494.498 137.464C493.472 130.556 491.185 126.328 489.123 123.816C488.093 122.561 487.123 121.74 486.403 121.23C486.043 120.974 485.745 120.797 485.534 120.682C485.429 120.624 485.345 120.582 485.285 120.554C485.255 120.54 485.232 120.529 485.215 120.521L485.194 120.512L485.187 120.509L485.185 120.508L485.184 120.508C485.183 120.508 485.183 120.507 484.991 120.969ZM484.991 120.969L485.106 120.482L485.145 120.492L485.183 120.507L484.991 120.969ZM313.841 99.7954L312.706 100.293L313.868 100.722L313.868 100.722L313.868 100.722L313.869 100.723L313.875 100.725L313.901 100.735C313.925 100.744 313.961 100.758 314.008 100.776C314.101 100.814 314.239 100.87 314.412 100.946C314.758 101.096 315.244 101.322 315.8 101.619C316.916 102.216 318.288 103.089 319.373 104.211C320.458 105.333 321.215 106.659 321.207 108.175C321.198 109.686 320.426 111.509 318.188 113.626C313.746 117.826 306.639 118.797 300.525 118.675C297.485 118.615 294.727 118.285 292.729 117.97C291.73 117.813 290.922 117.66 290.365 117.546C290.087 117.489 289.871 117.442 289.726 117.409C289.653 117.393 289.598 117.38 289.561 117.372L289.524 117.363L289.521 117.362C289.505 117.357 289.483 117.35 289.456 117.343C289.401 117.327 289.322 117.306 289.219 117.283C289.014 117.235 288.713 117.177 288.317 117.129C287.524 117.032 286.349 116.973 284.788 117.113C281.666 117.393 277.009 118.47 270.778 121.624C258.632 127.77 240.495 141.813 216.063 173.275C216.11 173.149 216.158 173.019 216.209 172.886C217.008 170.762 218.241 167.693 219.976 163.921C223.445 156.377 228.92 146.021 236.937 134.785C252.97 112.314 279.163 86.3345 319.816 72.2678C360.496 58.1919 393.891 59.7788 417.107 64.8751C428.717 67.4237 437.783 70.8504 443.944 73.6376C447.023 75.0311 449.377 76.2646 450.958 77.1482C451.748 77.59 452.345 77.9444 452.744 78.1874C452.943 78.309 453.093 78.4027 453.192 78.4657C453.215 78.4804 453.235 78.4934 453.253 78.5047C453.273 78.5176 453.29 78.5283 453.303 78.5367L453.33 78.5542L453.331 78.5549L453.333 78.5565L453.336 78.5583L453.337 78.5592L453.343 78.5632L453.383 78.5905C453.402 78.604 453.427 78.6214 453.458 78.6425C453.482 78.6593 453.509 78.6786 453.54 78.7002C453.68 78.7976 453.886 78.9431 454.155 79.1347C454.692 79.5181 455.476 80.0862 456.46 80.8234C458.428 82.2978 461.199 84.4482 464.403 87.1497C470.814 92.5547 478.95 100.157 485.873 108.957C492.801 117.763 498.482 127.729 500.042 137.863C501.594 147.947 499.074 158.235 489.536 167.787C489.496 167.808 489.435 167.84 489.353 167.88C489.189 167.962 488.944 168.078 488.626 168.211C487.989 168.477 487.064 168.812 485.916 169.082C483.621 169.622 480.449 169.901 476.929 168.861C469.921 166.791 461.31 159.421 455.556 137.78C452.395 125.267 446.176 113.748 437.452 104.249C428.727 94.7486 417.769 87.5648 405.556 83.3374L405.532 83.3294L405.509 83.3237L405.392 83.8099C405.509 83.3237 405.508 83.3236 405.508 83.3236L405.507 83.3234L405.505 83.3227L405.496 83.3207L405.464 83.3135C405.437 83.3074 405.398 83.2988 405.347 83.2883C405.247 83.2672 405.1 83.2383 404.914 83.206C404.542 83.1414 404.011 83.063 403.369 83.0065C402.086 82.8938 400.342 82.8667 398.521 83.2179C396.699 83.5692 394.78 84.3033 393.171 85.7286C391.557 87.1593 390.29 89.2576 389.734 92.276C389.196 95.1939 388.614 98.0638 387.819 100.61C387.023 103.16 386.026 105.344 384.681 106.914C383.35 108.469 381.677 109.427 379.477 109.544C377.254 109.662 374.441 108.924 370.849 106.963C369.297 106.115 367.745 105.223 366.175 104.32C360.449 101.029 354.493 97.6049 347.507 95.7592C338.562 93.3962 327.938 93.6108 313.841 99.7954ZM371.536 82.8261L371.527 82.8196L371.519 82.8136C371.51 82.8066 371.499 82.7974 371.484 82.7862C371.48 82.7824 371.474 82.7784 371.469 82.7743C371.426 82.7409 371.364 82.6938 371.284 82.6364C371.126 82.5215 370.898 82.3645 370.615 82.1922C370.054 81.8495 369.263 81.4377 368.367 81.1834C367.471 80.9293 366.44 80.824 365.422 81.1336C364.391 81.4471 363.429 82.1687 362.657 83.4648L362.638 83.4968L362.623 83.5313C362.133 84.73 362.098 86.0649 362.527 87.2832C362.951 88.4874 363.799 89.4942 364.913 90.1178C364.925 90.1271 364.939 90.1385 364.956 90.152C365.006 90.1913 365.079 90.2478 365.172 90.3178C365.358 90.4578 365.626 90.6524 365.956 90.8738C366.615 91.3151 367.529 91.8691 368.543 92.3061C369.551 92.7405 370.694 93.0757 371.797 93.0408C372.651 93.0138 373.481 92.7637 374.189 92.1804L374.242 92.362L374.841 91.5929C375.656 90.5475 375.841 89.4344 375.651 88.3766C375.465 87.3397 374.922 86.3741 374.316 85.5649C373.706 84.7514 373.006 84.0646 372.464 83.5837C372.192 83.3424 371.957 83.1508 371.789 83.0189C371.729 82.972 371.678 82.9325 371.636 82.901C371.619 82.8882 371.604 82.8768 371.59 82.8666C371.567 82.8491 371.548 82.8355 371.536 82.8261ZM466.423 104.609L466.403 104.622L466.385 104.637C465.823 105.108 465.392 105.714 465.132 106.398C464.872 107.082 464.793 107.82 464.903 108.542C465.013 109.264 465.308 109.945 465.759 110.518C466.211 111.091 466.804 111.537 467.48 111.812L467.564 111.847L467.655 111.849L467.669 111.349C467.655 111.849 467.655 111.849 467.655 111.849L467.656 111.849L467.657 111.849L467.662 111.849L467.678 111.85C467.692 111.85 467.711 111.85 467.735 111.85C467.784 111.851 467.854 111.85 467.942 111.848C468.117 111.844 468.363 111.833 468.653 111.805C469.227 111.75 469.994 111.626 470.719 111.346C471.439 111.068 472.174 110.613 472.599 109.859C473.032 109.091 473.088 108.111 472.65 106.907C472.487 106.284 472.178 105.71 471.748 105.231C471.312 104.746 470.765 104.374 470.153 104.146C469.541 103.918 468.882 103.841 468.233 103.922C467.584 104.003 466.963 104.238 466.423 104.609Z" fill="#ACEAC7" stroke="black"/>
<path d="M112.46 218.815L74.2822 169.499L79.1762 242.899C85.7989 239.832 92.4656 236.858 99.1762 233.977C107.31 230.461 115.493 227.061 123.726 223.777L112.46 218.815Z" fill="#DCBEFF"/>
<path d="M98.0563 198.707L97.7823 194.015C97.7243 193.037 96.0783 193.031 96.1383 194.015L98.3783 232.335C98.4363 233.311 100.08 233.319 100.024 232.335L98.0563 198.707ZM380.204 309.915C378.228 301.073 377.765 291.96 378.834 282.963C378.864 282.804 378.833 282.641 378.748 282.504C378.663 282.367 378.529 282.267 378.374 282.223L228.388 196.823C218.486 191.181 221.562 192.809 221.008 192.623C220.719 192.523 220.407 192.512 220.112 192.591C218.664 192.807 217.216 193.259 215.792 193.591C194.1 198.894 172.722 205.407 151.758 213.099C142.708 216.358 133.714 219.772 124.778 223.341C116.193 226.758 107.66 230.302 99.1783 233.973C92.4783 236.865 85.8116 239.839 79.1783 242.895C76.7123 244.037 70.9923 246.755 70.5783 246.953C70.4897 247.007 70.4144 247.08 70.3583 247.167L70.3363 247.189C70.3036 247.234 70.276 247.282 70.2543 247.333C69.8163 248.145 71.4743 249.155 71.5023 252.625C71.3993 253.374 71.3392 254.129 71.3223 254.885C71.5223 256.539 72.7743 259.651 72.4463 261.285C72.3243 261.594 72.2195 261.91 72.1323 262.231C72.0843 262.775 73.8763 268.503 71.9803 269.643C71.8582 269.717 71.7573 269.821 71.6872 269.946C71.6172 270.071 71.5804 270.211 71.5804 270.354C71.5804 270.497 71.6172 270.637 71.6872 270.762C71.7573 270.886 71.8582 270.991 71.9803 271.065C72.8863 271.547 71.9583 272.315 71.4183 272.725C71.2985 272.801 71.1998 272.905 71.1314 273.03C71.063 273.154 71.0272 273.293 71.0272 273.435C71.0272 273.577 71.063 273.716 71.1314 273.84C71.1998 273.964 71.2985 274.069 71.4183 274.145C95.7783 292.509 132.54 319.681 160.452 339.633C173.222 348.761 186.052 357.823 199.116 366.527C204.556 370.151 217.372 378.631 223.43 381.095C224.986 381.731 224.694 381.659 227.748 380.263L379.826 310.845C379.982 310.752 380.103 310.611 380.171 310.443C380.239 310.275 380.251 310.09 380.204 309.915ZM90.4043 239.613C106.124 232.608 122.03 226.039 138.122 219.907C158.572 212.123 179.322 205.053 200.422 199.249C205.838 197.761 211.28 196.365 216.746 195.061C217.973 194.862 219.179 194.548 220.346 194.121C220.41 194.166 220.477 194.208 220.546 194.245C221.1 194.481 217.82 192.695 243.784 207.477C253.502 213.013 372.21 280.603 376.21 282.877C372.33 284.625 228.41 348.259 227.994 348.445C218.368 341.937 73.6783 247.389 73.5943 247.339C79.3883 244.529 84.5003 242.241 90.3963 239.613H90.4043ZM224.352 377.013L224.088 379.577C223.978 379.539 223.878 379.505 223.826 379.483C213.376 375.103 180.066 351.525 170.87 345.019C156.762 335.037 73.1083 273.357 73.1083 273.357C73.9283 272.413 74.3943 271.215 73.6343 270.283C74.9843 268.411 74.1623 263.203 73.8343 262.319C74.9223 260.897 72.9383 254.707 72.9243 254.465C73.2584 252.818 73.1711 251.113 72.6703 249.509C79.9623 253.537 86.9403 258.233 93.9363 262.723C106.828 270.997 160.936 306.789 175.16 316.305L227.004 351.165C226.724 353.883 224.626 374.329 224.344 377.019L224.352 377.013ZM363.704 316.403L244.026 371.039C222.562 380.839 227.426 378.511 225.752 379.337L228.634 351.301C236.102 347.871 375.764 284.993 377.054 284.375C376.208 292.826 376.687 301.358 378.474 309.661L363.704 316.403Z" fill="black"/>
<path d="M85.9089 321.825C83.0369 319.181 77.6489 317.537 76.3389 314.165C75.3569 311.649 77.1389 308.851 73.8749 305.461C72.6494 304.184 71.0185 303.372 69.2609 303.165C71.3429 300.227 69.0869 288.321 59.4989 285.027C57.3809 284.299 54.9709 284.427 53.0549 283.165C51.5229 282.149 50.5089 280.577 48.0389 278.675C40.6569 272.977 30.6089 272.203 23.9509 275.663C22.1825 276.558 20.6457 277.851 19.4609 279.441C15.2029 285.291 20.1169 290.153 14.4409 298.815C11.9649 302.591 8.77492 305.859 7.01292 310.075C6.06066 311.938 5.6403 314.028 5.79801 316.114C5.95573 318.201 6.68541 320.204 7.90692 321.903C10.0649 324.565 13.3409 325.979 16.1349 327.833C20.4289 330.683 20.6149 332.681 20.9009 336.943C20.881 339.072 21.5769 341.146 22.8769 342.833C24.1673 344.206 25.8621 345.132 27.7149 345.477C32.2909 346.445 36.5429 344.445 40.8209 343.127C54.6429 338.867 71.7949 349.047 83.2689 340.213C88.6589 336.071 91.5369 327.005 85.9089 321.825ZM47.5409 340.333C38.1289 340.695 28.2709 348.105 23.6789 341.197C21.5829 338.039 23.4969 333.677 20.7729 329.875C17.0989 324.735 7.83892 323.715 7.41092 316.363C6.90492 307.665 16.2389 302.293 18.5209 294.079C20.1689 288.143 15.8289 277.845 29.6489 275.501C42.7089 273.283 50.6169 283.409 51.8649 284.331C53.7851 285.412 55.9044 286.092 58.0949 286.331C60.6162 287.071 62.8784 288.505 64.6227 290.47C66.3671 292.435 67.5232 294.851 67.9589 297.443C68.7129 301.643 67.0809 302.701 68.1929 303.343C68.0885 303.464 68.0197 303.611 67.9941 303.769C67.9684 303.926 67.987 304.088 68.0477 304.236C68.1084 304.383 68.2089 304.511 68.338 304.606C68.4671 304.7 68.6197 304.756 68.7789 304.769C69.6822 304.832 70.5595 305.098 71.345 305.549C72.1306 305.999 72.804 306.621 73.3149 307.369C76.3829 311.831 70.7989 314.369 80.5769 320.169C83.3289 321.803 86.2009 323.485 87.0629 326.795C87.391 328.399 87.3753 330.054 87.0167 331.652C86.6582 333.249 85.965 334.753 84.9829 336.063C77.2569 347.213 58.6689 339.907 47.5409 340.333Z" fill="#DCBEFF"/>
<path d="M51.2268 319.813C48.5048 321.713 44.6768 323.643 41.5088 321.613C35.6108 317.813 44.3588 313.379 39.8208 310.047C38.6185 309.402 37.3207 308.954 35.9768 308.719C33.3768 307.873 32.9488 304.773 33.7948 302.497C35.0368 299.141 39.0608 297.629 42.1108 296.439C43.0868 296.057 42.6608 294.465 41.6728 294.851C38.4088 296.125 34.7408 297.589 32.8328 300.731C32.0514 301.969 31.6716 303.417 31.7454 304.879C31.8191 306.341 32.3428 307.744 33.2448 308.897C35.0348 310.877 38.0808 310.417 39.1208 311.613C41.0448 313.813 34.3028 318.213 40.2008 322.695C43.9168 325.525 48.6628 323.613 52.0568 321.243C52.9208 320.631 52.0988 319.205 51.2268 319.813ZM59.7228 309.671C57.6703 308.887 55.4427 308.68 53.2808 309.071C52.2408 309.251 52.6808 310.835 53.7188 310.659C60.6568 309.459 66.4728 315.357 63.0728 321.059C62.7077 321.706 62.2054 322.265 61.6011 322.697C60.9968 323.13 60.3052 323.424 59.5748 323.561C58.5328 323.745 58.9748 325.331 60.0108 325.147C66.4728 324.009 68.6848 313.191 59.7228 309.671Z" fill="#DCBEFF"/>
<path d="M256.265 336.593C255.515 333.865 254.467 331.227 253.141 328.727C252.002 326.444 250.27 324.51 248.127 323.127C246.975 322.428 245.658 322.047 244.311 322.023C242.964 321.999 241.634 322.333 240.459 322.991C237.713 324.792 235.496 327.291 234.035 330.231C233.683 330.851 233.353 331.485 233.035 332.125C232.573 333.075 233.991 333.909 234.455 332.955C236.523 328.717 240.617 321.923 246.287 324.063C248.226 324.93 249.844 326.383 250.913 328.219C252.277 330.399 253.353 332.747 254.113 335.203C255.612 340.034 256.748 344.971 257.513 349.971C258.825 357.643 259.223 366.133 254.969 373.015C251.453 378.699 241.369 385.295 241.303 376.239C241.292 376.028 241.201 375.829 241.048 375.683C240.895 375.537 240.691 375.456 240.48 375.456C240.268 375.456 240.065 375.537 239.912 375.683C239.758 375.829 239.667 376.028 239.657 376.239C239.727 384.815 247.721 383.307 253.381 377.663C259.397 371.663 260.627 362.863 259.819 354.739C259.073 348.613 257.886 342.548 256.265 336.593ZM286.755 315.841C282.997 309.041 277.859 307.971 274.075 310.107C271.328 311.908 269.11 314.406 267.649 317.347C267.297 317.969 266.963 318.601 266.649 319.243C266.187 320.191 267.605 321.025 268.069 320.073C270.137 315.833 274.231 309.041 279.901 311.179C287.059 313.877 289.787 329.317 291.117 337.087C292.427 344.761 292.825 353.249 288.571 360.131C285.571 364.973 278.721 369.491 276.127 367.193C275.674 366.669 275.332 366.059 275.122 365.399C274.911 364.74 274.837 364.044 274.903 363.355C274.903 363.137 274.816 362.928 274.662 362.774C274.508 362.62 274.299 362.533 274.081 362.533C273.863 362.533 273.654 362.62 273.499 362.774C273.345 362.928 273.259 363.137 273.259 363.355C273.281 366.155 274.389 369.213 277.581 369.437C283.091 369.837 295.423 361.963 293.421 341.855C292.827 335.793 290.341 322.333 286.755 315.841ZM320.131 310.271C318.731 305.459 316.331 299.319 311.993 296.805C310.841 296.107 309.525 295.726 308.178 295.703C306.831 295.679 305.502 296.013 304.327 296.671C301.58 298.47 299.362 300.969 297.901 303.909C297.551 304.531 297.218 305.163 296.901 305.805C296.439 306.753 297.857 307.587 298.323 306.635C300.389 302.395 304.483 295.603 310.153 297.741C317.341 300.449 320.073 316.061 321.369 323.651C322.679 331.323 323.079 339.811 318.823 346.695C315.823 351.535 308.973 356.053 306.379 353.755C305.926 353.231 305.584 352.621 305.374 351.961C305.164 351.302 305.09 350.606 305.157 349.917C305.146 349.706 305.055 349.507 304.902 349.361C304.749 349.215 304.545 349.134 304.334 349.134C304.122 349.134 303.919 349.215 303.766 349.361C303.612 349.507 303.521 349.706 303.511 349.917C303.533 352.717 304.641 355.775 307.833 356.001C309.577 355.989 311.286 355.513 312.785 354.621C327.447 347.085 324.785 326.203 320.131 310.271ZM347.583 295.977C346.183 291.153 343.769 285.019 339.443 282.511C338.291 281.813 336.975 281.432 335.628 281.409C334.281 281.385 332.952 281.719 331.777 282.377C329.031 284.178 326.814 286.676 325.353 289.615C325.001 290.238 324.667 290.87 324.353 291.511C323.891 292.459 325.309 293.293 325.775 292.341C327.841 288.101 331.937 281.309 337.603 283.447C344.771 286.147 347.503 301.647 348.819 309.357C350.131 317.029 350.529 325.517 346.275 332.401C343.275 337.241 336.425 341.759 333.829 339.461C333.377 338.937 333.035 338.327 332.826 337.667C332.616 337.007 332.542 336.312 332.609 335.623C332.609 335.405 332.522 335.195 332.367 335.041C332.213 334.886 332.003 334.799 331.785 334.799C331.566 334.799 331.357 334.886 331.202 335.041C331.047 335.195 330.961 335.405 330.961 335.623C330.985 338.423 332.093 341.481 335.285 341.707C337.028 341.694 338.737 341.218 340.237 340.327C354.963 332.775 352.227 311.897 347.583 295.977ZM374.941 303.201C374.109 294.835 371.019 276.089 363.253 271.589C362.102 270.889 360.785 270.508 359.438 270.484C358.091 270.46 356.762 270.794 355.587 271.453C352.841 273.254 350.624 275.752 349.163 278.691C348.811 279.311 348.481 279.945 348.163 280.587C347.701 281.535 349.121 282.371 349.585 281.417C351.651 277.177 355.747 270.383 361.415 272.521C368.615 275.241 371.335 290.847 372.631 298.431C373.943 306.105 374.341 314.593 370.085 321.475C367.085 326.317 360.237 330.835 357.641 328.537C357.188 328.014 356.847 327.404 356.637 326.744C356.427 326.085 356.354 325.39 356.421 324.701C356.41 324.49 356.319 324.291 356.166 324.145C356.013 323.999 355.809 323.918 355.598 323.918C355.386 323.918 355.183 323.999 355.03 324.145C354.876 324.291 354.785 324.49 354.775 324.701C354.797 327.501 355.905 330.557 359.097 330.781C365.189 331.215 376.851 322.415 374.941 303.201Z" fill="#B26EE6"/>
<path d="M145.515 197.806L127.027 196.406L127.867 209.01L113.581 205.088L112.461 218.814L137.543 229.858L150.971 221.416L145.515 197.806Z" fill="#FEE992"/>
<path d="M145.514 197.807C145.514 197.807 114.988 159.659 110.494 154.071C81.8521 118.481 45.3821 73.6473 41.0261 70.6353L13.5781 91.0833L112.46 218.815L113.58 205.089L127.866 209.011L127.026 196.411L145.514 197.807Z" fill="#FFD35C"/>
<path d="M147.568 197.357L127.492 195.685C122.304 189.389 36.3501 82.6192 35.9981 82.1232C35.3981 81.2672 33.9601 82.0892 34.5761 82.9552C46.8001 100.127 124.482 194.779 126.314 196.831C126.358 196.881 126.4 196.935 126.444 196.989C126.49 197.038 126.542 197.08 126.6 197.113C126.662 198.785 127 207.605 127 207.913L113.8 204.289C113.678 204.258 113.55 204.255 113.426 204.28C113.302 204.306 113.186 204.359 113.086 204.436C112.985 204.513 112.904 204.612 112.848 204.725C112.791 204.838 112.761 204.963 112.76 205.089L111.266 222.089C111.172 223.143 112.818 223.137 112.91 222.089L114.31 206.149L127.646 209.809C127.769 209.842 127.897 209.845 128.022 209.82C128.146 209.795 128.263 209.742 128.364 209.665C128.464 209.588 128.546 209.489 128.602 209.375C128.658 209.261 128.688 209.136 128.688 209.009L128.256 197.391L147.568 198.991C148.626 199.091 148.626 197.445 147.568 197.357Z" fill="black"/>
<path d="M105.316 194.829L92.8144 179.655C55.9024 134.847 58.5544 138.025 58.2264 137.671C58.1944 137.635 58.1644 137.595 58.1364 137.559C57.4604 136.741 56.3024 137.911 56.9724 138.723L109.356 202.311C110.03 203.129 111.19 201.959 110.52 201.147L105.316 194.829ZM37.2144 69.0712C28.8224 74.7828 20.7273 80.9188 12.9604 87.4552C12.1484 88.1371 13.3184 89.2952 14.1244 88.6192C21.7848 82.1749 29.7684 76.1251 38.0444 70.4932C38.9164 69.8992 38.0924 68.4712 37.2144 69.0712ZM36.0684 65.1112C27.5071 71.0845 19.0984 77.2712 10.8424 83.6712C10.6894 83.8258 10.6035 84.0346 10.6035 84.2522C10.6035 84.4697 10.6894 84.6785 10.8424 84.8331C10.9988 84.9835 11.2074 85.0674 11.4244 85.0674C11.6414 85.0674 11.8499 84.9835 12.0064 84.8331C20.1531 78.5318 28.4504 72.4312 36.8984 66.5312C37.7624 65.9292 36.9404 64.5032 36.0684 65.1112Z" fill="black"/>
<path d="M7.69656 82.3991L34.5866 63.1651L26.7446 53.2671L0.226562 72.6891L7.69656 82.3991Z" fill="#F55555"/>
<path d="M159.893 163.446C159.778 165.892 159.073 168.274 157.837 170.388C156.602 172.502 154.872 174.285 152.797 175.584C158.213 176.33 159.893 184.548 159.893 184.548C161.573 175.948 165.121 173.348 165.121 173.348C161.949 172.596 159.893 163.446 159.893 163.446Z" fill="#B26EE6"/>
<path d="M184.311 149.347C182.76 147.746 181.819 145.654 181.649 143.433C181.23 145.372 180.313 147.169 178.989 148.647C177.381 150.411 175.266 151.635 172.935 152.149C174.918 152.909 176.72 154.078 178.221 155.581C179.722 157.084 180.89 158.886 181.649 160.871C181.745 158.59 182.695 156.429 184.309 154.815C185.923 153.202 188.084 152.253 190.365 152.157C188.075 151.976 185.927 150.979 184.311 149.347ZM179.183 177.271C178.913 178.529 178.286 179.682 177.376 180.592C176.466 181.502 175.313 182.129 174.055 182.399C175.221 182.846 176.28 183.534 177.164 184.417C178.047 185.301 178.735 186.36 179.183 187.527C179.239 186.185 179.798 184.914 180.747 183.964C181.696 183.015 182.967 182.456 184.309 182.399C182.98 182.304 181.73 181.733 180.789 180.791C179.847 179.849 179.277 178.599 179.183 177.271Z" fill="#DCBEFF"/>
<path d="M41.8849 136.559C40.0236 135.878 38.3639 134.739 37.0589 133.247C36.5916 132.64 36.2032 131.976 35.9029 131.271C34.8093 136.761 35.6651 142.46 38.3229 147.387C43.7369 157.097 60.9229 152.241 60.9229 152.241L49.6269 137.543C47.0046 137.866 44.3432 137.527 41.8849 136.559ZM97.3349 93.791C84.6369 93.977 70.4429 104.809 70.4429 104.809L102.683 144.243C104.155 142.196 105.452 140.028 106.561 137.763C108.413 133.998 109.616 129.947 110.117 125.781C110.66 120.753 110.203 115.668 108.773 110.817C108.728 110.611 108.764 110.396 108.873 110.216C108.982 110.036 109.156 109.905 109.359 109.849C109.562 109.793 109.778 109.816 109.964 109.915C110.15 110.014 110.292 110.18 110.359 110.379C111.996 115.939 112.395 121.79 111.527 127.521C110.113 135.445 106.525 142.821 101.163 148.825C98.9345 151.474 96.4115 153.861 93.6429 155.939C95.8549 159.049 99.8609 164.681 102.525 168.359C103.149 168.023 103.763 167.665 104.365 167.295C108.073 164.986 111.496 162.249 114.565 159.141L123.237 169.941C126.475 163.691 127.089 143.771 127.189 139.191C127.499 138.309 127.789 137.419 128.047 136.521C128.094 136.341 128.206 136.184 128.361 136.08C128.516 135.976 128.704 135.932 128.889 135.957C129.226 134.183 129.414 132.383 129.449 130.577C129.827 106.871 110.027 93.605 97.3349 93.791Z" fill="#ACEAC7"/>
<path d="M60.4548 130.765C59.9388 130.421 58.8708 130.689 58.3468 130.781C55.1468 131.357 52.5108 133.331 51.5008 131.453C50.8808 130.305 51.8208 129.921 53.5308 127.299C53.8128 126.865 55.9748 124.237 55.0488 123.797C54.8208 123.689 50.9788 126.025 49.8708 126.525C49.2696 126.91 48.5483 127.063 47.8428 126.953C47.4528 126.83 47.118 126.574 46.8961 126.231C46.6741 125.887 46.5789 125.477 46.6268 125.071C46.6588 124.725 48.4608 119.717 48.4608 119.717C48.3608 118.759 43.6788 123.941 43.0908 124.705C42.6923 125.385 42.048 125.886 41.2908 126.105C38.7428 126.619 38.2528 123.105 37.5848 120.623C37.4548 120.127 37.2028 119.361 36.6328 119.271C35.8724 123.103 36.1556 127.068 37.4528 130.753C38.3251 132.466 39.7631 133.824 41.5228 134.597C46.7608 137.265 53.3908 135.809 57.8208 133.111C58.5948 132.641 59.3848 132.145 60.1148 131.603C60.3968 131.385 60.8368 131.019 60.4548 130.765ZM102.727 91.1271C98.5848 92.6716 94.03 92.7006 89.8688 91.2091C89.8868 92.5031 89.9468 93.7951 90.0828 95.0771C90.1117 96.0504 90.3397 97.0074 90.7528 97.8891C90.8168 97.9891 90.8168 97.9891 90.9868 98.0991C92.8428 99.2991 101.119 98.8711 102.105 98.2791C102.396 98.0747 102.624 97.7927 102.763 97.4651C102.963 97.0333 103.11 96.5786 103.201 96.1111C103.425 94.9813 103.529 93.8309 103.511 92.6791C103.511 92.0551 103.491 91.4271 103.461 90.8011C103.215 90.9071 102.979 91.0311 102.727 91.1271ZM108.285 65.1991C106.716 63.5565 104.832 62.247 102.746 61.3491C100.66 60.4512 98.414 59.9832 96.1428 59.9731C92.4651 59.9331 88.8838 61.1485 85.9901 63.4186C83.0964 65.6887 81.0634 68.8777 80.2268 72.4591C80.1921 72.5789 80.1308 72.6893 80.0475 72.7821C79.9641 72.8748 79.8609 72.9476 79.7456 72.9949C79.6302 73.0422 79.5056 73.0628 79.3812 73.0552C79.2567 73.0477 79.1355 73.0121 79.0268 72.9511C77.7668 72.1511 75.4068 72.2611 75.3248 74.1671C75.3594 74.6064 75.4897 75.0327 75.7065 75.4163C75.9232 75.7999 76.2213 76.1314 76.5797 76.3877C76.9381 76.644 77.3482 76.8188 77.7813 76.8999C78.2143 76.981 78.6599 76.9664 79.0868 76.8571C79.297 76.801 79.5209 76.8298 79.7102 76.9371C79.8994 77.0445 80.039 77.2219 80.0988 77.4311C80.6046 80.5738 82.0719 83.4826 84.2988 85.7571C85.8476 87.3268 87.6953 88.5703 89.7326 89.4143C91.7699 90.2583 93.9556 90.6856 96.1608 90.6711C99.77 90.7246 103.292 89.5619 106.161 87.3703C109.029 85.1787 111.076 82.0856 111.973 78.5891C112.493 76.2256 112.43 73.7707 111.787 71.4374C111.144 69.1041 109.942 66.9627 108.285 65.1991ZM92.2608 156.979C91.4072 157.49 90.5694 158.027 89.7488 158.589C88.1295 159.64 86.6381 160.875 85.3048 162.271C84.7948 162.736 84.3921 163.307 84.1248 163.943C84.0468 164.217 84.0288 164.167 84.1388 164.389C84.3708 164.631 85.5768 164.339 86.0128 164.209C86.7742 163.976 87.5192 163.692 88.2428 163.359C89.1608 162.945 90.0668 162.497 90.9428 161.999C91.7428 161.543 92.6348 162.647 91.9428 163.291C91.1888 163.989 90.4708 164.725 89.7708 165.475C88.6833 166.582 87.7178 167.802 86.8908 169.115C86.4028 169.941 85.9348 170.813 86.7348 171.001C88.2717 171.034 89.7779 170.568 91.0268 169.671C91.9681 169.165 92.8753 168.598 93.7428 167.973C94.4728 167.445 95.1908 168.435 94.8688 169.099C94.3843 170.099 93.9576 171.125 93.5908 172.173C93.3499 172.819 93.1678 173.485 93.0468 174.163C92.9528 174.763 92.8968 174.885 93.7828 174.457C94.464 174.118 95.1227 173.735 95.7548 173.311C97.6317 172.065 99.4385 170.716 101.167 169.271L92.2608 156.979Z" fill="#FFDEDE"/>
<path d="M225.203 352.001C219.563 349.091 214.003 346.015 208.507 342.853C202.331 339.302 196.21 335.658 190.145 331.921C183.715 327.975 158.037 311.509 151.611 307.257C145.351 303.11 139.114 298.931 132.901 294.719C114.755 282.413 76.2348 255.119 76.1808 255.081C75.3228 254.459 74.4988 255.881 75.3488 256.503C76.1988 257.125 110.175 281.231 127.749 293.209C133.847 297.361 158.927 314.065 165.383 318.241C171.798 322.386 178.247 326.478 184.731 330.517C190.876 334.332 197.066 338.072 203.301 341.739C208.96 345.068 214.686 348.283 220.475 351.383C221.767 352.071 223.063 352.751 224.363 353.423C225.311 353.907 226.145 352.487 225.203 352.001ZM135.005 311.105C132.689 309.705 117.305 298.705 115.093 297.131C79.2408 271.529 82.8268 273.843 81.5868 273.071L81.5028 273.011C80.6428 272.389 79.8208 273.811 80.6708 274.431C89.2708 280.631 134.047 312.451 134.175 312.527C134.363 312.637 134.588 312.668 134.799 312.612C135.01 312.557 135.191 312.419 135.301 312.231C135.411 312.042 135.442 311.818 135.386 311.607C135.331 311.395 135.193 311.215 135.005 311.105ZM206.995 351.441C202.524 349.412 198.203 347.066 194.067 344.421C188.371 340.961 182.789 337.315 177.249 333.611C171.529 329.784 165.855 325.894 160.227 321.941C134.545 303.965 143.773 309.899 140.427 307.807C140.397 307.789 140.369 307.763 140.339 307.743C139.485 307.117 138.661 308.543 139.509 309.165C143.083 311.781 168.609 329.765 174.245 333.565C181.985 338.779 196.509 348.401 204.915 352.301C205.333 352.496 205.753 352.683 206.175 352.863C206.366 352.965 206.588 352.991 206.797 352.936C207.006 352.881 207.187 352.749 207.303 352.567C207.411 352.377 207.439 352.151 207.381 351.94C207.323 351.729 207.184 351.55 206.995 351.441ZM157.551 237.803C166.647 226.113 163.281 229.269 166.609 231.091C167.419 231.539 168.33 231.771 169.256 231.768C170.181 231.764 171.09 231.523 171.897 231.069C173.663 230.013 174.497 227.965 176.197 226.807C179.439 224.597 183.597 224.385 186.959 222.393C190.707 220.173 192.299 216.749 196.991 214.895C200.975 213.319 205.623 212.771 208.683 209.483C209.405 208.707 208.243 207.541 207.519 208.319C204.845 211.193 200.735 211.777 197.207 213.061C191.683 215.071 190.417 217.913 187.133 220.309C183.133 223.237 177.577 222.995 173.995 226.495C173.037 227.429 170.539 231.985 167.053 229.431C163.343 226.707 165.219 225.295 156.387 236.631C155.745 237.471 156.901 238.637 157.551 237.803ZM242.653 308.539C236.425 311.843 230.254 315.248 224.141 318.753C223.953 318.863 223.816 319.043 223.76 319.254C223.705 319.465 223.736 319.69 223.846 319.878C223.956 320.066 224.136 320.203 224.347 320.258C224.558 320.314 224.783 320.283 224.971 320.173C252.679 304.288 281.529 290.484 311.283 278.873C312.259 278.493 311.833 276.901 310.845 277.287C287.53 286.378 264.761 296.813 242.653 308.539ZM223.763 290.871C217.847 294.071 211.973 297.349 206.141 300.705C205.953 300.815 205.816 300.995 205.76 301.206C205.705 301.417 205.736 301.642 205.846 301.83C205.956 302.018 206.136 302.155 206.347 302.21C206.558 302.266 206.783 302.235 206.971 302.125C233.488 286.884 260.86 273.182 288.953 261.089C289.923 260.671 289.085 259.253 288.123 259.669C266.211 269.097 244.736 279.508 223.763 290.871ZM207.161 278.301C200.094 281.268 193.048 284.284 186.021 287.351C185.053 287.773 185.889 289.193 186.851 288.771C199.396 283.296 212.011 277.982 224.695 272.827C237.277 267.715 249.923 262.764 262.633 257.975C269.825 255.266 277.034 252.608 284.261 250.001C285.261 249.645 284.825 248.055 283.825 248.415C270.922 253.067 258.08 257.883 245.299 262.863C232.518 267.843 219.805 272.989 207.161 278.301ZM168.077 274.987C167.141 275.481 167.971 276.903 168.909 276.409C180.533 270.276 192.343 264.51 204.341 259.113C216.338 253.716 228.504 248.706 240.839 244.085C247.803 241.473 254.811 238.987 261.865 236.627C262.865 236.293 262.437 234.703 261.429 235.041C248.883 239.242 236.479 243.838 224.215 248.829C211.975 253.812 199.9 259.178 187.991 264.927C181.292 268.16 174.654 271.514 168.077 274.987ZM237.815 329.455C236.689 329.049 235.489 328.889 234.296 328.985C233.103 329.082 231.945 329.433 230.899 330.015C229.299 331.045 227.793 333.079 228.699 335.027C229.773 337.321 233.005 337.195 235.099 336.919C236.407 336.75 237.685 336.402 238.899 335.885C239.934 335.553 240.821 334.872 241.409 333.957C242.611 331.591 239.609 330.013 237.815 329.455ZM239.561 333.667C239.199 333.942 238.801 334.166 238.379 334.335C237.466 334.734 236.509 335.026 235.529 335.203C234.55 335.378 233.554 335.436 232.561 335.377C232.144 335.409 231.726 335.349 231.335 335.2C230.945 335.051 230.592 334.818 230.303 334.517C229.557 333.489 230.723 332.135 231.589 331.531C232.456 331.024 233.426 330.716 234.428 330.632C235.429 330.548 236.437 330.688 237.377 331.043C238.164 331.25 238.899 331.621 239.533 332.133C240.135 332.671 240.257 333.091 239.561 333.671V333.667ZM272.917 315.917C271.848 315.247 270.641 314.83 269.386 314.7C268.132 314.569 266.864 314.727 265.681 315.163C264.503 315.417 263.345 315.758 262.217 316.183C261.714 316.438 261.268 316.79 260.903 317.22C260.538 317.649 260.262 318.146 260.091 318.683C259.92 319.177 259.868 319.704 259.94 320.222C260.012 320.739 260.205 321.232 260.505 321.661C260.94 322.105 261.46 322.458 262.034 322.698C262.607 322.938 263.223 323.062 263.845 323.061C266.47 323.372 269.13 322.939 271.521 321.811C272.788 321.377 273.841 320.474 274.463 319.287C274.638 318.633 274.579 317.939 274.297 317.324C274.014 316.708 273.526 316.211 272.917 315.917ZM272.667 319.117C272.025 319.741 271.255 320.219 270.411 320.517C268.6 321.288 266.633 321.622 264.669 321.493C263.731 321.535 262.8 321.311 261.985 320.845C261.76 320.609 261.613 320.311 261.563 319.989C261.512 319.667 261.561 319.338 261.703 319.045C262.383 317.163 264.569 317.315 266.119 316.751C267.092 316.386 268.137 316.25 269.171 316.352C270.206 316.455 271.203 316.793 272.087 317.341C272.739 317.781 273.277 318.407 272.667 319.123V319.117ZM301.341 302.231C298.952 301.944 296.534 302.417 294.429 303.583C292.886 304.345 291.701 305.677 291.123 307.297C290.963 307.675 290.886 308.083 290.898 308.494C290.911 308.904 291.012 309.307 291.195 309.675C291.481 310.066 291.864 310.375 292.306 310.572C292.749 310.769 293.235 310.846 293.717 310.797C296.437 310.943 299.142 310.298 301.503 308.939C302.202 308.543 302.784 307.969 303.19 307.275C303.595 306.581 303.81 305.793 303.813 304.989C303.777 304.316 303.512 303.676 303.063 303.174C302.613 302.673 302.006 302.34 301.341 302.231ZM300.427 307.671C298.511 308.693 296.361 309.197 294.191 309.135C292.703 309.185 292.629 308.953 292.539 308.639C292.525 308.314 292.586 307.99 292.719 307.693C293.161 306.568 293.999 305.643 295.075 305.093C295.981 304.646 296.934 304.302 297.917 304.067C298.882 303.777 299.897 303.693 300.897 303.821C301.082 303.832 301.263 303.881 301.429 303.965C301.595 304.048 301.742 304.165 301.861 304.308C301.98 304.45 302.069 304.615 302.122 304.793C302.175 304.971 302.191 305.158 302.169 305.343C302.08 305.84 301.876 306.309 301.573 306.713C301.271 307.117 300.878 307.445 300.427 307.671ZM329.397 294.283C329.944 293.774 330.319 293.108 330.47 292.376C330.621 291.645 330.541 290.885 330.241 290.201C329.879 289.656 329.385 289.211 328.806 288.906C328.227 288.601 327.581 288.447 326.927 288.457C325.238 288.55 323.606 289.103 322.209 290.057C320.507 290.893 319.13 292.271 318.297 293.975C318.151 294.353 318.086 294.758 318.106 295.162C318.126 295.567 318.232 295.963 318.415 296.325C320.115 299.641 326.777 297.051 329.397 294.283ZM322.997 291.511C323.69 291.093 324.421 290.743 325.181 290.465C325.733 290.226 326.329 290.103 326.931 290.103C327.597 290.155 328.511 290.359 328.825 291.031C329.225 291.881 328.603 292.777 328.013 293.343C326.298 294.984 324.077 295.994 321.713 296.209C321.24 296.289 320.754 296.231 320.313 296.043C319.129 295.371 319.689 293.471 322.993 291.511H322.997ZM347.727 286.579C349.161 286.447 350.533 285.929 351.697 285.079C352.128 284.78 352.487 284.389 352.749 283.935C353.011 283.48 353.169 282.974 353.211 282.451C353.157 281.871 352.916 281.325 352.524 280.895C352.132 280.465 351.611 280.174 351.039 280.067C350.168 279.819 349.256 279.753 348.359 279.873C347.463 279.993 346.6 280.296 345.825 280.763C342.927 282.645 343.363 287.055 347.727 286.579ZM345.787 283.209C346.163 282.56 346.733 282.045 347.416 281.735C348.1 281.426 348.863 281.337 349.599 281.483C349.954 281.47 350.307 281.53 350.638 281.66C350.968 281.79 351.268 281.987 351.519 282.239C351.621 282.687 351.375 283.023 351.471 282.839C351.043 283.603 350.344 284.179 349.513 284.455C347.827 285.083 344.983 285.619 345.787 283.209ZM207.947 237.087C193.264 242.345 178.967 248.621 165.159 255.871C161.26 257.916 157.404 260.04 153.591 262.241C153.412 262.356 153.285 262.535 153.235 262.742C153.185 262.948 153.217 263.166 153.324 263.35C153.432 263.533 153.605 263.668 153.81 263.726C154.014 263.785 154.233 263.762 154.421 263.663C167.842 255.92 181.789 249.125 196.159 243.329C200.204 241.69 204.279 240.138 208.385 238.671C209.375 238.321 208.947 236.729 207.947 237.087ZM150.971 221.417L137.543 229.859L154.665 237.397L150.971 221.417ZM59.3328 129.011C52.9008 129.471 51.5968 133.287 55.7588 126.921C56.5808 125.665 57.5588 123.921 56.2148 122.629C55.1208 121.585 53.8368 122.491 52.7808 123.059C51.3849 123.918 49.9338 124.685 48.4368 125.353C48.1348 125.321 48.1688 125.435 49.0528 122.953C49.8968 120.599 50.3948 119.727 49.9148 118.785C49.8074 118.576 49.6589 118.391 49.4781 118.241C49.2973 118.091 49.0881 117.979 48.863 117.912C48.6378 117.845 48.4015 117.824 48.1681 117.851C47.9347 117.877 47.7091 117.951 47.5048 118.067C45.3673 119.702 43.4425 121.598 41.7748 123.711C41.5128 124.045 41.1748 124.693 40.6388 124.449C39.4108 123.879 39.7748 117.389 36.4708 117.603C36.4364 117.61 36.4023 117.618 36.3688 117.629C36.3302 117.626 36.2914 117.626 36.2528 117.629C34.3108 118.053 34.6668 120.919 34.6228 122.399C34.5148 126.035 34.7988 130.373 37.0588 133.243C38.3642 134.734 40.0238 135.873 41.8848 136.555C44.6925 137.501 47.678 137.798 50.6169 137.424C53.5558 137.049 56.3717 136.014 58.8528 134.395C59.6134 133.931 60.3553 133.437 61.0768 132.915C61.4165 132.707 61.7013 132.42 61.9073 132.079C62.1133 131.738 62.2345 131.352 62.2608 130.955C62.2688 129.405 60.6268 128.919 59.3328 129.011ZM60.1108 131.597C54.8408 135.505 47.5668 137.667 41.5108 134.597C40.2251 134.05 39.1026 133.181 38.2524 132.072C37.4022 130.964 36.8532 129.654 36.6588 128.271C36.0188 125.271 36.1648 119.539 36.6288 119.271C37.1988 119.361 37.4488 120.127 37.5808 120.623C38.2488 123.121 38.7408 126.623 41.2868 126.105C42.044 125.886 42.6884 125.385 43.0868 124.705C43.6688 123.949 48.3548 118.759 48.4568 119.717C48.4568 119.787 46.9488 123.991 46.9248 124.057C46.7811 124.381 46.6796 124.721 46.6228 125.071C46.573 125.48 46.6685 125.893 46.8926 126.239C47.1167 126.585 47.4551 126.841 47.8488 126.963C48.5544 127.072 49.2753 126.919 49.8768 126.535C50.9748 126.039 54.8268 123.699 55.0548 123.807C55.9808 124.247 53.8188 126.875 53.5368 127.309C53.1274 127.995 52.6667 128.65 52.1588 129.267C51.5948 129.903 51.0268 130.573 51.5068 131.467C52.3668 133.067 54.7348 131.811 55.9648 131.431C56.8608 131.155 59.6808 130.257 60.4608 130.779C60.8368 131.021 60.3968 131.385 60.1108 131.597ZM74.5208 81.2929C74.7983 82.4305 75.3922 83.4663 76.2339 84.2803C77.0756 85.0944 78.1306 85.6535 79.2768 85.8929C80.2964 86.1494 81.3532 86.2245 82.3988 86.1149C83.7554 87.7016 85.3851 89.0326 87.2108 90.0449C87.5428 90.2289 87.8928 90.3749 88.2348 90.5369C88.2348 91.9369 88.2728 93.3369 88.4008 94.7209C88.4458 95.9928 88.7083 97.2476 89.1768 98.4309C89.4621 98.9074 89.8544 99.3109 90.3227 99.6095C90.791 99.908 91.3224 100.093 91.8748 100.151C93.5757 100.482 95.3101 100.606 97.0408 100.523C98.7187 100.505 100.392 100.34 102.041 100.029C104.529 99.5229 104.951 96.3669 105.101 94.2829C105.197 92.8595 105.188 91.431 105.075 90.0089C108.821 87.9647 111.683 84.6128 113.115 80.5929C113.928 78.1784 114.17 75.6078 113.82 73.0841C113.469 70.5603 112.537 68.1526 111.097 66.0509C110.465 65.1381 109.748 64.2876 108.955 63.5109C109.828 61.1775 109.799 58.6024 108.875 56.2889C108.272 54.8614 107.161 53.7078 105.758 53.0504C104.355 52.3931 102.758 52.2785 101.275 52.7289C101.082 51.4104 100.542 50.1667 99.7116 49.1246C98.8811 48.0825 97.789 47.2793 96.5468 46.7969C95.2952 46.3406 93.9564 46.1745 92.6312 46.311C91.306 46.4475 90.0291 46.8831 88.8968 47.5849C87.2468 48.5849 85.9068 50.0949 84.3088 51.1489C84.4178 51.2441 84.4964 51.3693 84.5348 51.5089C84.592 51.7192 84.5637 51.9435 84.4562 52.1331C84.3487 52.3226 84.1707 52.462 83.9608 52.5209C82.5639 52.6687 81.2339 53.1957 80.1148 54.0449L80.0748 54.0769C79.1355 54.8333 78.389 55.8018 77.8968 56.9029C77.3388 58.3229 75.9408 57.5989 76.2268 56.6909C76.3147 56.4296 76.4196 56.1744 76.5408 55.9269C77.1306 54.7206 77.9836 53.662 79.0369 52.8292C80.0902 51.9964 81.317 51.4105 82.6268 51.1149C81.7947 49.41 80.3677 48.0684 78.6148 47.3429C77.0911 46.6795 75.4246 46.4118 73.7698 46.5645C72.115 46.7173 70.5257 47.2855 69.1491 48.2166C67.7726 49.1476 66.6536 50.4113 65.8959 51.8903C65.1382 53.3693 64.7663 55.0158 64.8148 56.6769C64.9787 57.7283 64.9139 58.8027 64.6248 59.8269C64.0335 60.8501 63.135 61.6611 62.0568 62.1449C60.0748 63.3149 57.9108 65.0329 58.0568 67.3289C58.1817 68.1895 58.5681 68.9909 59.1638 69.6245C59.7594 70.2581 60.5355 70.6932 61.3868 70.8709C63.1102 71.183 64.8878 70.9553 66.4768 70.2189C65.3914 71.4066 64.7494 72.9327 64.6594 74.5392C64.5693 76.1457 65.0367 77.734 65.9825 79.0356C66.9284 80.3373 68.2946 81.2724 69.8504 81.683C71.4061 82.0935 73.0559 81.9543 74.5208 81.2889V81.2929ZM103.201 96.1109C103.111 96.5784 102.964 97.0331 102.763 97.4649C102.624 97.7924 102.396 98.0744 102.105 98.2789C101.221 98.8089 92.9968 99.3889 90.9868 98.0989C90.8168 97.9909 90.8168 97.9909 90.7528 97.8889C90.3393 97.0073 90.1112 96.0502 90.0828 95.0769C89.9468 93.7969 89.8828 92.5029 89.8688 91.2089C94.0296 92.7035 98.5855 92.6744 102.727 91.1269C102.977 91.0309 103.215 90.9069 103.461 90.8009C103.598 92.5748 103.51 94.3588 103.201 96.1109ZM79.0268 72.9509C79.1356 73.0118 79.2568 73.0474 79.3812 73.055C79.5057 73.0626 79.6303 73.0419 79.7456 72.9946C79.861 72.9473 79.9642 72.8746 80.0475 72.7818C80.1308 72.689 80.1921 72.5786 80.2268 72.4589C81.0633 68.8785 83.0954 65.6902 85.9878 63.4202C88.8803 61.1503 92.4602 59.9342 96.1368 59.9729C98.4096 59.9733 100.658 60.437 102.746 61.3355C104.834 62.234 106.716 63.5485 108.279 65.1989C109.946 66.9586 111.154 69.1013 111.797 71.4381C112.44 73.775 112.498 76.2342 111.967 78.5989C109.167 90.7149 93.1068 94.8349 84.2928 85.7669C82.066 83.4923 80.5987 80.5836 80.0928 77.4409C80.0331 77.2316 79.8935 77.0542 79.7042 76.9469C79.515 76.8395 79.2911 76.8108 79.0808 76.8669C78.654 76.9758 78.2085 76.9901 77.7756 76.9089C77.3427 76.8276 76.9327 76.6528 76.5744 76.3966C76.2161 76.1404 75.918 75.809 75.7012 75.4256C75.4843 75.0421 75.3538 74.616 75.3188 74.1769C75.4068 72.2709 77.7648 72.1529 79.0268 72.9509ZM102.525 168.359L93.5688 155.993C96.3732 153.908 98.9239 151.503 101.169 148.825C106.529 142.82 110.115 135.445 111.527 127.521C112.395 121.79 111.996 115.939 110.359 110.379C110.291 110.179 110.15 110.013 109.964 109.915C109.778 109.816 109.562 109.792 109.359 109.848C109.156 109.904 108.982 110.036 108.873 110.216C108.764 110.396 108.728 110.611 108.773 110.817C110.204 115.667 110.661 120.753 110.117 125.781C109.615 129.947 108.412 133.998 106.561 137.763C105.452 140.028 104.155 142.195 102.683 144.243C100.43 147.384 97.8227 150.255 94.9128 152.799C94.0023 153.607 93.051 154.368 92.0628 155.079C91.9741 155.14 91.898 155.219 91.8388 155.309C90.8388 155.889 89.8708 156.509 88.9188 157.169C87.0773 158.336 85.3963 159.739 83.9188 161.343C83.0228 162.391 81.6788 164.451 83.0808 165.661C84.2368 166.661 86.2288 165.933 87.5388 165.411C86.7061 166.356 85.9692 167.382 85.3388 168.473C84.6888 169.639 84.1248 171.349 85.4968 172.243C87.0468 173.243 89.2028 172.359 90.6868 171.669C91.2528 171.409 91.8008 171.107 92.3448 170.797C92.2582 171.004 92.1762 171.214 92.0988 171.425C91.6688 172.611 90.8808 174.523 91.6128 175.735C92.4128 177.067 94.2348 176.093 95.2128 175.551C96.8267 174.61 98.3714 173.556 99.8348 172.395C100.803 171.658 101.757 170.901 102.697 170.125C105.288 168.787 107.735 167.188 110.001 165.353C115.389 161.204 120.004 156.139 123.635 150.389C126.247 146.213 128.267 141.693 129.635 136.961C129.669 136.845 129.676 136.722 129.654 136.603C129.633 136.484 129.584 136.371 129.512 136.274C129.439 136.177 129.345 136.099 129.237 136.044C129.129 135.99 129.01 135.961 128.889 135.961C128.704 135.935 128.516 135.979 128.36 136.083C128.205 136.187 128.094 136.344 128.047 136.525C125.781 144.268 121.762 151.386 116.301 157.325C112.799 161.182 108.78 164.536 104.359 167.291C103.763 167.671 103.149 168.023 102.525 168.359ZM95.7548 173.303C95.1227 173.727 94.464 174.11 93.7828 174.449C92.9328 174.861 92.9468 174.799 93.0468 174.155C93.1669 173.476 93.349 172.81 93.5908 172.165C93.9564 171.116 94.3832 170.09 94.8688 169.091C95.1928 168.427 94.4688 167.437 93.7428 167.965C92.8751 168.591 91.9679 169.161 91.0268 169.671C89.7769 170.567 88.2702 171.033 86.7328 170.999C85.9208 170.809 86.4148 169.913 86.8888 169.113C87.7159 167.8 88.6814 166.58 89.7688 165.473C90.4688 164.723 91.1868 163.987 91.9408 163.289C92.6348 162.645 91.7408 161.541 90.9408 161.997C90.0648 162.493 89.1588 162.943 88.2408 163.357C87.5165 163.688 86.7716 163.972 86.0108 164.207C83.5928 164.937 84.1648 164.089 84.1948 163.989C84.4341 163.342 84.8123 162.754 85.3028 162.269C86.6372 160.877 88.1285 159.645 89.7468 158.597C90.568 158.035 91.4057 157.498 92.2588 156.987L101.167 169.271C99.4392 170.715 97.6324 172.061 95.7548 173.303Z" fill="black"/>
<path d="M333.091 217.936C332.274 214.263 330.563 210.848 328.108 207.996C325.654 205.144 322.533 202.942 319.023 201.586C308.365 197.64 303.843 205.568 296.559 199.168C293.577 196.544 288.425 189.194 276.895 188.21C273.083 187.923 269.256 188.491 265.692 189.872C262.128 191.253 258.917 193.413 256.295 196.194C255.663 196.874 255.067 197.586 254.509 198.326C253.867 199.168 255.297 199.988 255.929 199.156C259.223 194.821 263.906 191.747 269.194 190.45C274.482 189.152 280.056 189.708 284.983 192.026C293.399 195.966 295.289 203.268 302.443 203.446C306.315 203.544 309.243 201.74 313.861 202.1C317.262 202.481 320.51 203.725 323.296 205.714C326.082 207.703 328.313 210.371 329.779 213.464C333.551 221.202 332.109 231.864 330.357 234.75C330.049 235.254 329.423 236.132 328.785 235.67C327.927 235.048 327.103 236.47 327.955 237.092C329.451 238.176 331.073 236.788 331.827 235.492C332.594 233.711 333.12 231.835 333.393 229.914C334.086 225.941 333.983 221.87 333.091 217.936Z" fill="#DCBEFF"/>
<path d="M309.892 222.347C308.641 222.505 307.378 222.538 306.12 222.445C301.852 221.807 305.076 216.045 298.996 214.197C295.466 213.129 292.046 214.913 289.046 216.607C288.953 216.661 288.871 216.734 288.806 216.82C288.741 216.906 288.693 217.004 288.666 217.108C288.638 217.213 288.632 217.321 288.646 217.428C288.661 217.535 288.697 217.639 288.751 217.732C288.806 217.825 288.878 217.907 288.964 217.972C289.05 218.037 289.148 218.085 289.252 218.112C289.357 218.14 289.466 218.146 289.573 218.132C289.68 218.117 289.783 218.081 289.876 218.027C292.224 216.701 294.908 215.131 297.718 215.587C303.212 216.477 300.518 221.079 303.894 223.349C306.778 225.291 310.728 222.863 313.484 224.549C314.043 224.9 314.49 225.402 314.775 225.997C315.06 226.592 315.17 227.256 315.093 227.911C315.016 228.566 314.754 229.186 314.339 229.699C313.923 230.211 313.371 230.595 312.746 230.807C311.746 231.139 312.174 232.729 313.184 232.395C318.462 230.637 318.438 221.881 309.892 222.347Z" fill="#DCBEFF"/>
<path d="M92.1502 73.9031C91.8824 73.9031 91.6206 73.9825 91.398 74.1313C91.1753 74.28 91.0017 74.4915 90.8993 74.7389C90.7968 74.9863 90.77 75.2586 90.8222 75.5212C90.8745 75.7839 91.0034 76.0251 91.1928 76.2145C91.3821 76.4039 91.6234 76.5328 91.886 76.5851C92.1487 76.6373 92.4209 76.6105 92.6684 76.508C92.9158 76.4055 93.1272 76.232 93.276 76.0093C93.4248 75.7866 93.5042 75.5249 93.5042 75.2571C93.5045 75.0792 93.4696 74.903 93.4017 74.7386C93.3337 74.5742 93.234 74.4248 93.1082 74.2991C92.9824 74.1733 92.8331 74.0736 92.6687 74.0056C92.5043 73.9376 92.3281 73.9028 92.1502 73.9031ZM106.344 72.6891C106.076 72.6891 105.815 72.7685 105.592 72.9173C105.369 73.066 105.196 73.2775 105.093 73.5249C104.991 73.7723 104.964 74.0446 105.016 74.3072C105.068 74.5699 105.197 74.8111 105.387 75.0005C105.576 75.1899 105.817 75.3188 106.08 75.3711C106.343 75.4233 106.615 75.3965 106.862 75.294C107.11 75.1915 107.321 75.018 107.47 74.7953C107.619 74.5726 107.698 74.3109 107.698 74.0431C107.698 73.684 107.556 73.3396 107.302 73.0856C107.048 72.8317 106.703 72.6891 106.344 72.6891ZM102.328 79.5651C101.963 80.387 101.295 81.0364 100.463 81.3777C99.6309 81.719 98.6992 81.726 97.8622 81.3971C97.5541 81.3031 97.2697 81.1441 97.0282 80.9309C96.7867 80.7177 96.5937 80.4552 96.4622 80.1611C96.3162 79.4271 96.0622 78.8691 95.4622 78.8691C95.2445 78.8706 95.0361 78.9577 94.882 79.1114C94.7278 79.2652 94.6403 79.4734 94.6382 79.6911C95.0722 83.6911 100.86 84.3031 103.108 81.4911C103.476 81.0578 103.748 80.5522 103.908 80.0071C103.945 79.8052 103.904 79.5971 103.795 79.4233C103.687 79.2495 103.517 79.1226 103.319 79.0673C103.122 79.0121 102.911 79.0325 102.727 79.1245C102.544 79.2166 102.402 79.3736 102.328 79.5651ZM91.3782 69.2571C92.0882 69.3331 92.4282 69.1291 92.5242 68.7051C92.5787 68.4949 92.5492 68.2717 92.4421 68.0828C92.335 67.894 92.1586 67.7542 91.9502 67.6931C91.2998 67.5498 90.626 67.5494 89.9754 67.692C89.3249 67.8346 88.713 68.1168 88.1822 68.5191C87.6587 68.9296 87.2262 69.4445 86.9122 70.0311C86.8577 70.1243 86.8221 70.2274 86.8074 70.3344C86.7928 70.4414 86.7993 70.5502 86.8267 70.6547C86.8541 70.7591 86.9018 70.8572 86.9671 70.9432C87.0324 71.0292 87.114 71.1016 87.2072 71.1561C87.3004 71.2106 87.4035 71.2462 87.5105 71.2608C87.6175 71.2755 87.7263 71.269 87.8308 71.2416C87.9353 71.2142 88.0333 71.1665 88.1193 71.1012C88.2054 71.0359 88.2777 70.9543 88.3322 70.8611C88.5322 70.5191 88.8342 70.0971 88.6902 70.2971C88.8742 70.0971 89.3782 69.6251 89.1782 69.8151C89.4902 69.5819 89.8451 69.4126 90.2226 69.3168C90.6001 69.2211 90.9928 69.2008 91.3782 69.2571ZM109.392 70.2511C109.196 69.619 108.864 69.0369 108.421 68.545C107.978 68.053 107.434 67.6628 106.826 67.4011C106.206 67.1465 105.54 67.0252 104.87 67.0451C104.652 67.0451 104.443 67.1317 104.289 67.2858C104.135 67.44 104.048 67.6491 104.048 67.8671C104.048 68.0851 104.135 68.2942 104.289 68.4483C104.443 68.6025 104.652 68.6891 104.87 68.6891C105.456 68.6506 106.039 68.79 106.544 69.0891C107.136 69.4627 107.584 70.0271 107.812 70.6891C107.87 70.8994 108.01 71.078 108.199 71.1857C108.389 71.2933 108.614 71.3212 108.824 71.2631C109.035 71.205 109.213 71.0657 109.321 70.8759C109.428 70.6862 109.456 70.4614 109.398 70.2511H109.392Z" fill="black"/>
<path d="M84.5408 51.5072C84.5015 51.368 84.4231 51.2431 84.3148 51.1472C84.2076 51.0565 84.0819 50.9904 83.9465 50.9534C83.8111 50.9164 83.6692 50.9095 83.5308 50.9332C82.0429 51.1209 80.6253 51.6763 79.4059 52.5492C78.1865 53.4222 77.2039 54.5852 76.5468 55.9332C76.4253 56.1806 76.3204 56.4359 76.2328 56.6972C75.9128 57.7112 77.5008 58.1432 77.8188 57.1352C78.4577 55.5226 79.6494 54.1899 81.1808 53.3752C82.0522 52.9306 82.9954 52.6435 83.9668 52.5272C84.1781 52.468 84.3573 52.3273 84.4649 52.136C84.5725 51.9448 84.5998 51.7186 84.5408 51.5072Z" fill="#B26EE6"/>
<path d="M424.285 228.407C425.415 228.383 426.546 228.391 427.676 228.43C426.815 228.474 426.094 228.486 425.493 228.474C425.012 228.465 424.613 228.441 424.285 228.407ZM422.995 228.469C422.995 228.469 422.996 228.469 422.997 228.468C422.996 228.469 422.995 228.469 422.995 228.469ZM415.52 238.488C415.52 238.488 415.52 238.488 415.521 238.487L415.52 238.488ZM415.972 238.717C417.173 239.36 418.308 240.118 419.361 240.981C418.168 240.328 417.033 239.571 415.972 238.717ZM405.532 204.603C405.505 204.237 405.486 203.82 405.478 203.345C405.486 203.425 405.494 203.504 405.502 203.584C405.573 204.284 405.633 204.975 405.651 205.668C405.604 205.38 405.563 205.029 405.532 204.603ZM392.333 211.5C392.047 210.94 391.772 210.374 391.51 209.802C391.797 210.362 392.071 210.928 392.333 211.5ZM386.454 221.146C386.933 221.269 387.404 221.395 387.864 221.533C387.053 221.373 386.255 221.159 385.473 220.894C385.663 220.943 385.852 220.991 386.041 221.04C386.179 221.075 386.317 221.11 386.454 221.146Z" fill="#FFD35C" stroke="#FFD35C"/>
<path d="M405.404 241.499C407.794 240.127 410.018 238.485 412.031 236.604C413.914 234.773 415.302 232.495 416.068 229.983C416.716 227.792 416.708 225.459 416.044 223.273C415.366 221.135 413.913 219.327 411.969 218.207C410.023 217.087 407.776 216.602 405.541 216.821C400.719 217.26 396.957 221.043 395.484 225.508C395.107 226.661 394.883 227.86 394.819 229.072C394.719 230.455 394.844 231.845 394.856 233.231C394.97 235.895 394.469 238.549 393.391 240.988C393.119 241.571 392.811 242.135 392.468 242.679C392.433 242.741 392.416 242.811 392.417 242.882C392.419 242.953 392.44 243.022 392.478 243.082C392.516 243.142 392.569 243.191 392.633 243.222C392.696 243.254 392.767 243.268 392.838 243.263C392.848 243.337 392.878 243.406 392.925 243.463C392.972 243.52 393.034 243.562 393.105 243.586C395.458 244.504 397.702 245.679 399.799 247.088C399.85 247.118 399.908 247.136 399.967 247.141C400.027 247.146 400.086 247.138 400.142 247.116C400.197 247.095 400.248 247.062 400.289 247.018C400.33 246.975 400.36 246.923 400.378 246.866C401.061 244.357 403.293 242.8 405.404 241.499Z" fill="#FFD35C"/>
<path d="M398.683 249.92C398.635 249.575 398.491 249.251 398.269 248.983C398.694 248.994 399.114 248.885 399.481 248.67C399.615 248.587 399.73 248.476 399.817 248.345C399.904 248.214 399.962 248.065 399.986 247.909C399.982 247.755 399.94 247.604 399.864 247.469C399.788 247.335 399.679 247.221 399.549 247.138C398.963 246.676 398.354 246.243 397.724 245.843L397.743 245.825C399.095 242.428 400.816 239.19 402.875 236.169C403.67 235.029 404.551 233.95 405.51 232.943C406.193 233.143 406.914 233.179 407.614 233.048C408.008 232.977 408.384 232.824 408.715 232.599C409.047 232.374 409.328 232.082 409.539 231.741C409.625 231.578 409.67 231.396 409.668 231.212C409.667 231.027 409.62 230.846 409.532 230.684C409.444 230.522 409.317 230.384 409.162 230.283C409.008 230.182 408.831 230.121 408.647 230.105C407.747 229.947 407.003 230.682 406.393 231.254C406.031 231.594 405.669 231.934 405.325 232.292C404.928 232.153 404.549 231.967 404.196 231.739C403.758 231.458 403.359 231.122 403.007 230.74C403.312 229.807 403.401 228.817 403.264 227.845C403.197 227.415 403.061 226.998 402.86 226.612C402.681 226.225 402.397 225.896 402.04 225.662C401.875 225.582 401.688 225.557 401.507 225.591C401.326 225.625 401.161 225.717 401.035 225.852C400.898 225.997 400.797 226.171 400.739 226.362C400.682 226.553 400.67 226.755 400.705 226.951C400.819 228.396 401.389 229.767 402.335 230.865C402.316 230.883 402.334 230.902 402.314 230.92C402.028 231.797 401.705 232.638 401.346 233.477C399.802 237.244 397.833 240.823 395.477 244.143C395.264 244.451 395.771 244.762 395.985 244.454C398.404 241.039 400.419 237.355 401.99 233.476C402.252 232.8 402.551 232.09 402.814 231.376C402.877 231.449 402.95 231.514 403.031 231.568C403.582 232.079 404.221 232.487 404.916 232.774L404.245 233.511C401.58 236.745 399.415 240.36 397.822 244.235C397.624 244.673 397.425 245.111 397.263 245.549C395.751 244.586 394.171 243.733 392.536 242.996C392.189 242.855 391.896 243.346 392.224 243.504C394.631 244.572 396.908 245.909 399.014 247.49C399.249 247.665 399.557 247.84 399.307 248.147C399.123 248.323 398.885 248.432 398.632 248.459C398.305 248.488 397.976 248.472 397.653 248.409C397.112 247.942 396.546 247.504 395.957 247.098C394.723 246.177 393.364 245.437 391.921 244.9C391.445 244.736 390.617 244.655 390.484 245.316C390.354 245.94 391.207 246.43 391.624 246.721C392.823 247.534 394.147 248.145 395.544 248.53C396.147 248.715 396.773 248.846 397.396 248.977C397.536 249.095 397.668 249.223 397.791 249.36C397.992 249.541 398.114 249.793 398.133 250.062C398.152 250.332 398.066 250.598 397.893 250.805C397.607 251.107 397.219 251.292 396.805 251.325C395.93 250.321 394.853 249.511 393.645 248.95C392.456 248.111 391.075 247.584 389.629 247.419C389.584 247.42 389.54 247.43 389.499 247.449C389.459 247.468 389.422 247.495 389.393 247.529C389.364 247.563 389.342 247.604 389.33 247.647C389.318 247.69 389.315 247.735 389.322 247.78C389.494 248.439 389.862 249.031 390.378 249.477C390.879 249.969 391.444 250.392 392.057 250.732C393.27 251.434 394.632 251.839 396.031 251.914C396.191 251.928 396.351 251.933 396.511 251.929C396.546 252.004 396.598 252.098 396.633 252.173C396.788 252.53 397.314 252.25 397.159 251.894C397.141 251.875 397.141 251.875 397.142 251.838C397.441 251.786 397.727 251.676 397.984 251.515C398.216 251.321 398.399 251.076 398.521 250.799C398.642 250.523 398.698 250.222 398.683 249.92ZM401.465 227.945C401.357 227.57 401.294 227.184 401.279 226.794C401.272 226.442 401.494 225.838 401.888 226.222C402.442 226.814 402.743 227.6 402.725 228.412C402.735 228.99 402.661 229.567 402.504 230.124C402.03 229.466 401.677 228.728 401.465 227.945ZM406.406 232.024C406.711 231.738 407.034 231.434 407.358 231.166C407.506 231.012 407.683 230.888 407.879 230.803C408.076 230.717 408.287 230.67 408.501 230.666C408.582 230.666 408.662 230.683 408.736 230.715C408.81 230.747 408.876 230.794 408.932 230.853C408.987 230.912 409.03 230.982 409.057 231.058C409.085 231.134 409.096 231.214 409.091 231.295C408.961 231.663 408.693 231.967 408.343 232.14C407.618 232.538 406.773 232.655 405.967 232.472C406.104 232.314 406.251 232.164 406.406 232.024ZM393.427 247.039C392.893 246.786 392.383 246.485 391.903 246.141C391.667 245.966 391.433 245.793 391.217 245.601C391.146 245.525 390.984 245.39 391.079 245.301C391.174 245.212 391.431 245.293 391.522 245.315C392.125 245.496 392.707 245.744 393.255 246.054C393.812 246.34 394.351 246.66 394.87 247.011C395.359 247.341 395.827 247.688 396.298 248.037C395.308 247.81 394.345 247.475 393.427 247.039ZM392.512 250.264C391.95 249.969 391.427 249.605 390.956 249.179C390.542 248.847 390.208 248.426 389.979 247.948C391.16 248.206 392.28 248.687 393.281 249.365C393.898 249.718 394.533 250.089 395.113 250.477C395.431 250.697 395.726 250.948 395.995 251.225C394.775 251.18 393.584 250.85 392.515 250.261L392.512 250.264Z" fill="black"/>
<path d="M392.012 162.165C392.356 161.771 392.694 161.378 393.027 160.988C392.705 161.371 392.367 161.763 392.012 162.165ZM366.464 203.023C365.934 203.098 365.534 203.02 365.226 202.721C365.014 202.507 364.874 202.185 364.797 201.779C364.949 202.111 365.173 202.412 365.496 202.642C365.77 202.836 366.094 202.964 366.464 203.023ZM404.726 141.563L405.046 141.677L405.27 141.421C405.973 140.616 406.672 139.872 407.413 139.252C405.817 141.108 403.985 143.535 401.651 147.062L401.772 146.733L401.497 146.508C400.524 145.709 399.281 145.318 398.028 145.418C397.298 145.475 396.598 145.697 395.976 146.058C396.219 145.273 396.618 144.286 397.25 143.392C397.895 142.479 398.769 141.681 399.954 141.276C401.137 140.872 402.688 140.84 404.726 141.563ZM409.258 157.508C409.565 156.8 409.705 156.023 409.659 155.237C409.586 153.993 409.049 152.823 408.158 151.958C409.867 150.605 411.346 149.327 412.632 148.122C413.606 150.052 413.801 151.596 413.587 152.821C413.364 154.099 412.686 155.094 411.855 155.862C411.02 156.634 410.044 157.165 409.266 157.505C409.264 157.506 409.261 157.507 409.258 157.508ZM423.301 132.288C423.101 132.87 422.845 133.498 422.534 134.163L422.491 134.127L417.892 130.212C418.687 129.687 419.402 129.272 420.04 128.957C421.412 128.281 422.341 128.114 422.91 128.226C423.178 128.28 423.362 128.393 423.493 128.549C423.628 128.71 423.735 128.948 423.786 129.29C423.888 129.987 423.741 131.003 423.301 132.288Z" fill="#ACEAC7" stroke="black"/>
<path d="M15.9054 226.16L16.1025 226.438L16.4328 226.356L18.9261 225.741L17.1542 228.284L16.969 228.55L17.136 228.828L18.8276 231.641L15.4333 230.39L15.1413 230.282L14.9158 230.497L12.2964 232.989L12.7373 229.898L12.7841 229.57L12.5004 229.399L9.99559 227.889L13.0256 226.977L13.3365 226.884L13.3775 226.562L13.805 223.204L15.9054 226.16ZM49.5464 245.876C46.7926 242.928 43.9187 240.093 40.9318 237.379C44.1396 239.879 47.0508 242.776 49.5464 245.876Z" fill="#FFE400" stroke="black"/>
<path d="M227.599 99.0632C226.938 96.7982 226.15 94.5723 225.237 92.396C228.157 93.0299 231.199 92.8201 234.005 91.7907C233.697 93.9687 233.72 96.1806 234.074 98.352C233.022 98.5578 231.956 98.6447 230.876 98.7249C230.804 98.7302 230.731 98.7355 230.659 98.7408C229.646 98.8155 228.619 98.8912 227.599 99.0632ZM236.806 85.7407C235.939 87.2468 235.09 88.7927 234.523 90.4876C234.013 90.5828 233.507 90.6965 233.006 90.8285C236.125 86.9067 237.537 81.9597 237.715 77.4366C237.868 73.5674 237.118 69.9659 235.722 67.5666C237.041 68.8558 238.188 70.778 238.94 72.8861C239.941 75.6936 240.213 78.7554 239.314 80.9868C238.723 82.4277 237.938 83.7828 237.141 85.1605C237.029 85.3533 236.917 85.5466 236.806 85.7407ZM236.296 66.4018L236.284 66.389L236.27 66.3782C231.401 62.6328 224.441 63.4266 220.064 67.2916C217.87 69.2292 216.32 71.9424 216.002 75.2484C215.684 78.5536 216.599 82.4294 219.298 86.6941L219.303 86.703L219.31 86.7115C220.477 88.2502 221.747 89.7083 223.112 91.0755C224.242 92.4537 225.187 94.7791 225.944 97.2383C226.698 99.6878 227.255 102.234 227.623 104.029C227.64 104.181 227.714 104.32 227.831 104.419C227.952 104.522 228.109 104.572 228.267 104.559L234.926 104.015C235.087 104.002 235.204 103.911 235.281 103.798C235.353 103.693 235.395 103.562 235.422 103.428C235.477 103.158 235.487 102.792 235.472 102.37C235.448 101.641 235.348 100.683 235.239 99.629C235.221 99.4537 235.202 99.2757 235.184 99.0957C235.054 97.8274 234.924 96.4489 234.892 95.147C234.86 93.8417 234.928 92.6329 235.183 91.698L235.183 91.6981L235.184 91.6942C235.557 90.2379 236.21 88.8648 236.955 87.5107C237.289 86.903 237.641 86.3019 237.993 85.6989C238.033 85.6301 238.074 85.5613 238.114 85.4925C238.506 84.8215 238.897 84.1476 239.259 83.4665C240.709 80.7429 241.731 77.8656 240.648 74.4031C239.964 71.3871 238.458 68.6183 236.296 66.4018ZM224.75 78.941C224.144 74.474 224.44 69.9314 225.62 65.5799C227.006 65.1877 228.456 65.0693 229.888 65.2312C231.781 69.3245 232.829 73.7566 232.969 78.2638C233.108 82.7653 232.339 87.2488 230.706 91.4481L229.138 91.5763C226.847 87.6983 225.355 83.4027 224.75 78.941ZM219.526 84.5643C217.875 81.2302 216.932 78.0958 217.116 75.2556C217.278 72.7622 218.309 70.4736 220.54 68.4568C219.328 71.2165 219.188 75.2612 220.135 79.3655C221.177 83.8798 223.547 88.527 227.342 91.7073C227.049 91.6994 226.753 91.6751 226.451 91.6457C226.339 91.6348 226.227 91.6232 226.114 91.6114C225.726 91.5714 225.329 91.5303 224.931 91.5149C222.984 89.3143 221.179 86.9928 219.526 84.5643ZM234.193 99.4817C234.298 100.653 234.26 101.833 234.081 102.996C233.419 103.112 232.758 103.165 232.087 103.201C231.85 103.214 231.61 103.225 231.368 103.235C230.874 103.258 230.372 103.28 229.871 103.321C229.674 103.337 229.509 103.364 229.371 103.389C229.346 103.393 229.322 103.397 229.299 103.401C229.194 103.42 229.118 103.434 229.051 103.44C228.974 103.446 228.942 103.438 228.926 103.431C228.913 103.426 228.885 103.41 228.843 103.343C228.749 103.191 228.648 102.888 228.493 102.287C228.407 101.947 228.306 101.527 228.181 101.005C228.109 100.705 228.029 100.372 227.939 100.001C230.038 100.128 232.144 99.9532 234.193 99.4817Z" fill="#FCAFB7" stroke="black" stroke-width="0.5"/>
<mask id="path-28-inside-1_2_2878" fill="white">
<path d="M482.598 220.844V220.705H482.435C482.38 220.697 482.324 220.709 482.277 220.738C482.23 220.768 482.195 220.814 482.179 220.867L454.546 236.276C453.289 242.681 454.779 242.286 452.591 266.304C450.589 268.764 449.332 272.291 442.208 274.937C438.217 276.115 434.325 277.604 430.569 279.392C425.68 282.154 424.4 287.259 429.312 290.995C429.208 291.068 429.114 291.154 429.032 291.251L428.334 291.645C428.241 291.711 428.169 291.803 428.127 291.91C428.086 292.017 428.077 292.133 428.102 292.244C428.127 292.356 428.185 292.458 428.267 292.537C428.35 292.616 428.454 292.669 428.567 292.689C428.869 292.968 429.126 292.829 429.405 292.689C429.416 292.852 429.416 293.015 429.405 293.177C429.405 293.312 429.459 293.442 429.555 293.538C429.651 293.634 429.781 293.687 429.917 293.687C430.053 293.687 430.183 293.634 430.279 293.538C430.375 293.442 430.429 293.312 430.429 293.177V292.202L430.848 291.97C434.317 293.966 439.299 294.917 440.346 299.419C441.114 302.761 438.507 306.845 435.201 309.189C435.201 309.189 434.806 305.917 434.782 305.87C434.619 305.406 433.851 305.406 433.874 305.987V307.077L433.013 305.638C432.931 305.543 432.818 305.48 432.695 305.46C432.571 305.439 432.443 305.463 432.335 305.527C432.227 305.59 432.145 305.69 432.103 305.808C432.061 305.926 432.062 306.055 432.105 306.172C432.711 307.472 433.292 308.771 433.921 310.071C425.494 314.712 422.468 304.385 417.183 300.023C417.858 296.449 418.021 296.518 417.882 296.194C417.902 296.122 417.907 296.047 417.898 295.973C417.889 295.9 417.865 295.828 417.828 295.764C417.792 295.699 417.742 295.642 417.684 295.597C417.625 295.551 417.558 295.517 417.486 295.497C417.414 295.478 417.339 295.472 417.265 295.481C417.191 295.49 417.12 295.514 417.055 295.55C416.99 295.587 416.933 295.636 416.887 295.695C416.841 295.753 416.807 295.82 416.788 295.892C416.625 296.286 416.508 296.704 416.369 297.122C416.229 297.54 416.206 297.354 416.089 297.795L415.833 297.029C415.802 296.915 415.727 296.818 415.625 296.759C415.522 296.701 415.4 296.685 415.286 296.716C415.172 296.746 415.075 296.821 415.016 296.923C414.957 297.026 414.941 297.147 414.972 297.261C414.855 297.493 414.972 297.864 415.181 298.63C414.06 297.922 412.856 297.353 411.596 296.936C408.321 295.979 404.81 296.226 401.703 297.632C401.516 296.75 401.377 295.845 401.26 294.964C401.144 294.082 400.422 294.546 400.306 294.964C400.16 295.027 400.043 295.143 399.98 295.289C399.817 295.056 399.631 294.685 399.188 294.871C399.116 294.846 399.037 294.843 398.963 294.862C398.888 294.881 398.821 294.922 398.769 294.978C398.717 295.035 398.683 295.105 398.671 295.181C398.658 295.257 398.668 295.334 398.7 295.405C399.282 296.333 399.84 297.261 400.399 298.189C396.486 300.245 392.989 303.007 390.086 306.335C390.058 306.383 390.048 306.439 390.055 306.495C390.063 306.55 390.088 306.602 390.128 306.641C390.167 306.681 390.219 306.706 390.275 306.714C390.33 306.721 390.387 306.71 390.435 306.683C393.576 303.897 396.965 301.403 400.562 299.234C400.748 300.347 400.981 301.554 401.214 302.552C401.214 303.179 402.401 303.039 402.308 302.413C402.319 302.274 402.319 302.134 402.308 301.995C402.396 301.913 402.46 301.809 402.494 301.693L402.704 302.018C402.764 302.131 402.86 302.22 402.977 302.272C403.093 302.325 403.224 302.337 403.349 302.308C403.473 302.279 403.585 302.21 403.666 302.111C403.747 302.013 403.793 301.89 403.798 301.763V301.647C403.799 301.584 403.784 301.521 403.756 301.465C403.728 301.408 403.686 301.359 403.635 301.322C403.169 300.387 402.648 299.48 402.075 298.607C404.236 297.603 406.629 297.205 409 297.454C411.37 297.703 413.628 298.591 415.53 300.023V300.208C415.53 300.719 415.344 301.229 415.228 301.74C415.111 302.25 415.042 302.622 414.972 303.063C414.902 303.503 415.996 304.153 416.112 303.387V303.063C416.207 302.991 416.28 302.895 416.322 302.784L417.02 304.594C417.276 305.244 418.324 304.989 418.091 304.292C417.858 303.596 417.463 302.39 417.137 301.461C421.606 305.87 425.331 315.663 434.037 311.231C434.2 312.786 434.224 313.25 434.433 315.176C434.46 315.307 434.531 315.425 434.635 315.51C434.739 315.595 434.869 315.641 435.004 315.641C435.138 315.641 435.268 315.595 435.372 315.51C435.476 315.425 435.547 315.307 435.574 315.176C435.574 314.689 435.574 314.201 435.457 313.714C435.481 313.615 435.481 313.512 435.457 313.412C435.517 313.436 435.584 313.436 435.644 313.412C436.039 313.668 436.715 313.412 436.528 312.786C436.206 311.948 435.841 311.127 435.434 310.326C439.555 307.495 442.767 302.111 440.416 297.702C438.67 294.453 434.829 293.409 431.43 291.692C432.524 290.949 434.247 290.647 433.223 289.835C432.92 288.652 431.919 289.835 430.313 290.647V289.673C430.313 289.599 430.283 289.528 430.231 289.476C430.179 289.424 430.107 289.394 430.033 289.394C429.959 289.394 429.888 289.424 429.836 289.476C429.783 289.528 429.754 289.599 429.754 289.673C429.754 289.998 429.638 290.299 429.568 290.624C425.261 287.468 426.332 282.85 430.755 280.274C435.178 277.698 440.556 276.747 445.281 274.798C447.029 274.013 448.603 272.891 449.913 271.497C451.224 270.103 452.245 268.465 452.917 266.676L485.252 250.71C485.314 250.725 485.379 250.717 485.434 250.687C485.49 250.657 485.533 250.607 485.554 250.547C485.089 248.436 482.831 220.983 482.598 220.844ZM469.468 243.771L453.173 266.188C453.639 261.965 455.501 241.544 454.849 236.461L469.515 243.771L482.272 221.47C482.803 231.123 483.821 240.742 485.322 250.292L469.468 243.771Z"/>
</mask>
<path d="M482.598 220.844V220.705H482.435C482.38 220.697 482.324 220.709 482.277 220.738C482.23 220.768 482.195 220.814 482.179 220.867L454.546 236.276C453.289 242.681 454.779 242.286 452.591 266.304C450.589 268.764 449.332 272.291 442.208 274.937C438.217 276.115 434.325 277.604 430.569 279.392C425.68 282.154 424.4 287.259 429.312 290.995C429.208 291.068 429.114 291.154 429.032 291.251L428.334 291.645C428.241 291.711 428.169 291.803 428.127 291.91C428.086 292.017 428.077 292.133 428.102 292.244C428.127 292.356 428.185 292.458 428.267 292.537C428.35 292.616 428.454 292.669 428.567 292.689C428.869 292.968 429.126 292.829 429.405 292.689C429.416 292.852 429.416 293.015 429.405 293.177C429.405 293.312 429.459 293.442 429.555 293.538C429.651 293.634 429.781 293.687 429.917 293.687C430.053 293.687 430.183 293.634 430.279 293.538C430.375 293.442 430.429 293.312 430.429 293.177V292.202L430.848 291.97C434.317 293.966 439.299 294.917 440.346 299.419C441.114 302.761 438.507 306.845 435.201 309.189C435.201 309.189 434.806 305.917 434.782 305.87C434.619 305.406 433.851 305.406 433.874 305.987V307.077L433.013 305.638C432.931 305.543 432.818 305.48 432.695 305.46C432.571 305.439 432.443 305.463 432.335 305.527C432.227 305.59 432.145 305.69 432.103 305.808C432.061 305.926 432.062 306.055 432.105 306.172C432.711 307.472 433.292 308.771 433.921 310.071C425.494 314.712 422.468 304.385 417.183 300.023C417.858 296.449 418.021 296.518 417.882 296.194C417.902 296.122 417.907 296.047 417.898 295.973C417.889 295.9 417.865 295.828 417.828 295.764C417.792 295.699 417.742 295.642 417.684 295.597C417.625 295.551 417.558 295.517 417.486 295.497C417.414 295.478 417.339 295.472 417.265 295.481C417.191 295.49 417.12 295.514 417.055 295.55C416.99 295.587 416.933 295.636 416.887 295.695C416.841 295.753 416.807 295.82 416.788 295.892C416.625 296.286 416.508 296.704 416.369 297.122C416.229 297.54 416.206 297.354 416.089 297.795L415.833 297.029C415.802 296.915 415.727 296.818 415.625 296.759C415.522 296.701 415.4 296.685 415.286 296.716C415.172 296.746 415.075 296.821 415.016 296.923C414.957 297.026 414.941 297.147 414.972 297.261C414.855 297.493 414.972 297.864 415.181 298.63C414.06 297.922 412.856 297.353 411.596 296.936C408.321 295.979 404.81 296.226 401.703 297.632C401.516 296.75 401.377 295.845 401.26 294.964C401.144 294.082 400.422 294.546 400.306 294.964C400.16 295.027 400.043 295.143 399.98 295.289C399.817 295.056 399.631 294.685 399.188 294.871C399.116 294.846 399.037 294.843 398.963 294.862C398.888 294.881 398.821 294.922 398.769 294.978C398.717 295.035 398.683 295.105 398.671 295.181C398.658 295.257 398.668 295.334 398.7 295.405C399.282 296.333 399.84 297.261 400.399 298.189C396.486 300.245 392.989 303.007 390.086 306.335C390.058 306.383 390.048 306.439 390.055 306.495C390.063 306.55 390.088 306.602 390.128 306.641C390.167 306.681 390.219 306.706 390.275 306.714C390.33 306.721 390.387 306.71 390.435 306.683C393.576 303.897 396.965 301.403 400.562 299.234C400.748 300.347 400.981 301.554 401.214 302.552C401.214 303.179 402.401 303.039 402.308 302.413C402.319 302.274 402.319 302.134 402.308 301.995C402.396 301.913 402.46 301.809 402.494 301.693L402.704 302.018C402.764 302.131 402.86 302.22 402.977 302.272C403.093 302.325 403.224 302.337 403.349 302.308C403.473 302.279 403.585 302.21 403.666 302.111C403.747 302.013 403.793 301.89 403.798 301.763V301.647C403.799 301.584 403.784 301.521 403.756 301.465C403.728 301.408 403.686 301.359 403.635 301.322C403.169 300.387 402.648 299.48 402.075 298.607C404.236 297.603 406.629 297.205 409 297.454C411.37 297.703 413.628 298.591 415.53 300.023V300.208C415.53 300.719 415.344 301.229 415.228 301.74C415.111 302.25 415.042 302.622 414.972 303.063C414.902 303.503 415.996 304.153 416.112 303.387V303.063C416.207 302.991 416.28 302.895 416.322 302.784L417.02 304.594C417.276 305.244 418.324 304.989 418.091 304.292C417.858 303.596 417.463 302.39 417.137 301.461C421.606 305.87 425.331 315.663 434.037 311.231C434.2 312.786 434.224 313.25 434.433 315.176C434.46 315.307 434.531 315.425 434.635 315.51C434.739 315.595 434.869 315.641 435.004 315.641C435.138 315.641 435.268 315.595 435.372 315.51C435.476 315.425 435.547 315.307 435.574 315.176C435.574 314.689 435.574 314.201 435.457 313.714C435.481 313.615 435.481 313.512 435.457 313.412C435.517 313.436 435.584 313.436 435.644 313.412C436.039 313.668 436.715 313.412 436.528 312.786C436.206 311.948 435.841 311.127 435.434 310.326C439.555 307.495 442.767 302.111 440.416 297.702C438.67 294.453 434.829 293.409 431.43 291.692C432.524 290.949 434.247 290.647 433.223 289.835C432.92 288.652 431.919 289.835 430.313 290.647V289.673C430.313 289.599 430.283 289.528 430.231 289.476C430.179 289.424 430.107 289.394 430.033 289.394C429.959 289.394 429.888 289.424 429.836 289.476C429.783 289.528 429.754 289.599 429.754 289.673C429.754 289.998 429.638 290.299 429.568 290.624C425.261 287.468 426.332 282.85 430.755 280.274C435.178 277.698 440.556 276.747 445.281 274.798C447.029 274.013 448.603 272.891 449.913 271.497C451.224 270.103 452.245 268.465 452.917 266.676L485.252 250.71C485.314 250.725 485.379 250.717 485.434 250.687C485.49 250.657 485.533 250.607 485.554 250.547C485.089 248.436 482.831 220.983 482.598 220.844ZM469.468 243.771L453.173 266.188C453.639 261.965 455.501 241.544 454.849 236.461L469.515 243.771L482.272 221.47C482.803 231.123 483.821 240.742 485.322 250.292L469.468 243.771Z" fill="#A6DBFF" stroke="black" stroke-width="2" mask="url(#path-28-inside-1_2_2878)"/>
</svg>
