<svg width="65" height="32" viewBox="0 0 65 32" fill="none" xmlns="http://www.w3.org/2000/svg">
<g clip-path="url(#clip0_49_2257)">
<path fill-rule="evenodd" clip-rule="evenodd" d="M0.00012207 4C0.00012207 1.79086 1.79098 0 4.00012 0H61.0001C63.2093 0 65.0001 1.79086 65.0001 4V28C65.0001 30.2091 63.2093 32 61.0001 32H4.00012C1.79098 32 0.00012207 30.2091 0.00012207 28V4Z" fill="#DAF9F1"/>
<path d="M21.6193 10.9736H28.4415V16.374H27.4572V15.9775H22.6036V16.374H21.6193V10.9736ZM19.4865 23.2236C20.7716 22.1481 21.4917 20.6077 21.6466 18.6025H22.672C22.6264 19.2406 22.533 19.8376 22.3917 20.3936C22.9705 21.2777 23.7247 21.8747 24.6544 22.1846V18.0693H20.4298V17.167H29.6447V18.0693H25.6798V19.6006H29.1115V20.4756H25.6798V22.4033C26.2996 22.4762 27.6759 22.4717 29.8087 22.3896C29.7905 22.4352 29.6857 22.7725 29.4943 23.4014C28.4096 23.4287 27.284 23.415 26.1173 23.3604C24.2762 23.3376 22.9226 22.6904 22.0568 21.4189C21.674 22.3714 21.118 23.1872 20.3888 23.8662C20.1154 23.6383 19.8146 23.4242 19.4865 23.2236ZM16.1779 17.6182C16.7612 17.3675 17.3491 17.1032 17.9415 16.8252V13.9131H16.2872V12.9834H17.9415V10.4404H18.9806V12.9834H20.7306V13.9131H18.9806V16.3193C19.5047 16.0596 20.0288 15.7861 20.5529 15.499C20.5802 15.8545 20.6167 16.2191 20.6622 16.5928C20.1017 16.8708 19.5411 17.151 18.9806 17.4336V22.1982C18.9806 23.0824 18.6434 23.5609 17.9689 23.6338C17.4949 23.6794 16.9617 23.693 16.3693 23.6748C16.3146 23.292 16.2553 22.9137 16.1915 22.54C16.6928 22.5947 17.1212 22.6221 17.4767 22.6221C17.7866 22.6221 17.9415 22.4535 17.9415 22.1162V17.9668C17.3947 18.2493 16.8523 18.5342 16.3146 18.8213L16.1779 17.6182ZM22.6036 15.1025H27.4572V13.8994H22.6036V15.1025ZM27.4572 11.8486H22.6036V13.0381H27.4572V11.8486ZM43.3165 16.2236L44.3693 16.6748C43.6902 18.2197 42.8813 19.4753 41.9425 20.4414C43.3097 21.4531 45.2488 22.1755 47.7599 22.6084C47.4226 23.0641 47.1492 23.4469 46.9396 23.7568C44.5105 23.137 42.5737 22.278 41.129 21.1797C39.8758 22.1595 37.8842 23.0505 35.1544 23.8525C34.9539 23.5335 34.726 23.1826 34.4708 22.7998C37.0366 22.1527 38.9712 21.3665 40.2745 20.4414C39.3722 19.5208 38.5952 18.32 37.9435 16.8389L38.8595 16.3193C39.4565 17.6729 40.213 18.8076 41.129 19.7236C41.963 18.8942 42.6922 17.7275 43.3165 16.2236ZM34.5665 12.4092H40.9718C40.7576 11.9626 40.45 11.4202 40.049 10.7822L41.0607 10.29C41.4526 10.8369 41.799 11.4111 42.0997 12.0127L41.3341 12.4092H47.6915V13.4209H34.5665V12.4092ZM38.6134 14.0498L39.4884 14.7607C38.2124 16.1006 36.8862 17.2992 35.5099 18.3564C35.282 18.0739 35.0268 17.7822 34.7443 17.4814C36.1206 16.5062 37.4103 15.3623 38.6134 14.0498ZM43.5216 13.9814C45.1896 15.2939 46.493 16.3923 47.4318 17.2764C47.1766 17.5316 46.9031 17.8278 46.6115 18.165C45.5815 17.1077 44.3009 15.9502 42.7697 14.6924L43.5216 13.9814Z" fill="#1DB48D"/>
</g>
<defs>
<clipPath id="clip0_49_2257">
<rect width="65" height="32" fill="white"/>
</clipPath>
</defs>
</svg>
