<svg width="24" height="25" viewBox="0 0 24 25" fill="none" xmlns="http://www.w3.org/2000/svg">
    <path d="M0 0.25H24V24.25H0V0.25Z" fill="white" fill-opacity="0.01"/>
    <path d="M21 15.25V12.4808C21 7.38275 16.9705 3.25 12 3.25C7.02945 3.25 3 7.38275 3 12.4808V15.25" stroke="black" stroke-width="1.3" stroke-linecap="round" stroke-linejoin="round"/>
    <path d="M21 16.25H22C22.5523 16.25 23 16.6977 23 17.25V18.25C23 18.8023 22.5523 19.25 22 19.25H21V16.25Z" fill="black"/>
    <path d="M3 14.2501H5C6.10455 14.2501 7 15.1456 7 16.2501V19.2501C7 20.3547 6.10455 21.2501 5 21.2501H3V14.2501Z" stroke="#45E1B8" stroke-width="1.3" stroke-linejoin="round"/>
    <path d="M3 16.2499H2C1.44771 16.2499 1 16.6976 1 17.2499V18.2499C1 18.8022 1.44771 19.2499 2 19.2499H3V16.2499Z" fill="black"/>
    <path d="M17 16.2501C17 15.1456 17.8954 14.2501 19 14.2501H21V21.2501H19C17.8954 21.2501 17 20.3547 17 19.2501V16.2501Z" stroke="#45E1B8" stroke-width="1.3" stroke-linejoin="round"/>
</svg>
