<svg width="24" height="24" viewBox="0 0 24 24" fill="none" xmlns="http://www.w3.org/2000/svg">
    <path d="M17.3842 3.94574C19.8165 3.25502 21.7143 3.37758 22.5014 4.47726C24.0758 6.67688 20.6095 11.953 14.7592 16.2617C8.90899 20.5704 2.89013 22.2801 1.31576 20.0805C0.490896 18.9281 1.0497 16.9311 2.61012 14.6713" stroke="black" stroke-width="1.3" stroke-linecap="round" stroke-linejoin="round"/>
    <path d="M12 21C16.9706 21 21 16.9706 21 12C21 7.02941 16.9706 3 12 3C7.02941 3 3 7.02941 3 12C3 16.9706 7.02941 21 12 21Z" stroke="black" stroke-width="1.3" stroke-linejoin="round"/>
    <path d="M7 10.5C7.16667 9.5 7.9 7.4 9.5 7" stroke="#45E1B8" stroke-linecap="round"/>
</svg>
