<?xml version="1.0" standalone="no"?><!DOCTYPE svg PUBLIC "-//W3C//DTD SVG 1.1//EN" "http://www.w3.org/Graphics/SVG/1.1/DTD/svg11.dtd"><svg t="1715231747868" class="icon" viewBox="0 0 1024 1024" version="1.1" xmlns="http://www.w3.org/2000/svg" p-id="6993" xmlns:xlink="http://www.w3.org/1999/xlink" width="200" height="200"><path d="M512 689.230769a19.692308 19.692308 0 0 1 19.377231 16.147693l0.315077 3.544615v157.538461a19.692308 19.692308 0 0 1-39.069539 3.544616L492.307692 866.461538v-157.538461a19.692308 19.692308 0 0 1 19.692308-19.692308z m-125.321846-51.908923a19.692308 19.692308 0 0 1 2.284308 25.127385l-2.284308 2.756923-111.379692 111.379692a19.692308 19.692308 0 0 1-30.129231-25.127384l2.244923-2.756924 111.419077-111.379692a19.692308 19.692308 0 0 1 27.844923 0z m275.771077-2.284308l2.756923 2.284308 111.379692 111.379692a19.692308 19.692308 0 0 1-25.127384 30.129231l-2.756924-2.244923-111.379692-111.419077a19.692308 19.692308 0 0 1 25.127385-30.129231zM315.076923 492.307692a19.692308 19.692308 0 0 1 3.544615 39.069539L315.076923 531.692308H157.538462a19.692308 19.692308 0 0 1-3.544616-39.069539L157.538462 492.307692h157.538461z m551.384615 0a19.692308 19.692308 0 0 1 3.544616 39.069539L866.461538 531.692308h-157.538461a19.692308 19.692308 0 0 1-3.544615-39.069539L708.923077 492.307692h157.538461z m-89.875692-244.893538a19.692308 19.692308 0 0 1 2.244923 25.127384l-2.244923 2.756924-111.419077 111.379692a19.692308 19.692308 0 0 1-30.129231-25.127385l2.284308-2.756923 111.379692-111.379692a19.692308 19.692308 0 0 1 27.884308 0zM272.541538 245.169231l2.756924 2.244923 111.379692 111.419077a19.692308 19.692308 0 0 1-25.127385 30.129231l-2.756923-2.284308L247.453538 275.298462a19.692308 19.692308 0 0 1 25.127385-30.129231zM512 137.846154a19.692308 19.692308 0 0 1 19.377231 16.147692L531.692308 157.538462v157.538461a19.692308 19.692308 0 0 1-39.069539 3.544615L492.307692 315.076923V157.538462a19.692308 19.692308 0 0 1 19.692308-19.692308z" fill="#333333" p-id="6994"></path></svg>