<?xml version="1.0" standalone="no"?><!DOCTYPE svg PUBLIC "-//W3C//DTD SVG 1.1//EN" "http://www.w3.org/Graphics/SVG/1.1/DTD/svg11.dtd"><svg t="1715231717144" class="icon" viewBox="0 0 1024 1024" version="1.1" xmlns="http://www.w3.org/2000/svg" p-id="4663" xmlns:xlink="http://www.w3.org/1999/xlink" width="200" height="200"><path d="M511.401366 55.859215c-252.211209 0-456.760908 204.483184-456.760908 456.760909S259.190157 969.381032 511.401366 969.381032c252.277724 0 456.760908-204.483184 456.760908-456.760908 0-252.278747-204.483184-456.760908-456.760908-456.760909z m-0.065492 906.902049c-122.994242 0-234.338143-48.853661-316.489164-127.892809 26.479071-54.082756 122.266671-105.584734 205.872834-135.836735 7.14984-2.581802 40.97625-21.050432 22.044062-70.764693-48.588625-49.581232-85.328387-130.011053-85.328387-209.18323 0-121.273041 80.164784-184.755888 173.900655-184.755887 93.734848 0 174.36319 63.482847 174.36319 184.755887 0 78.841649-36.938284 158.939919-85.261872 208.719672h0.265036c-18.535145 56.33403 11.121292 69.705572 15.821337 71.228251 88.042195 29.126364 185.153954 80.297814 211.499995 135.638214-82.151022 79.171154-193.627952 128.09133-316.687686 128.09133z" fill="#D7D7D8" p-id="4664"></path></svg>