<svg width="24" height="24" viewBox="0 0 24 24" fill="none" xmlns="http://www.w3.org/2000/svg">
<path d="M12 22C14.7614 22 17.2614 20.8807 19.0711 19.0711C20.8807 17.2614 22 14.7614 22 12C22 9.2386 20.8807 6.7386 19.0711 4.92893C17.2614 3.11929 14.7614 2 12 2C9.2386 2 6.7386 3.11929 4.92893 4.92893C3.11929 6.7386 2 9.2386 2 12C2 14.7614 3.11929 17.2614 4.92893 19.0711C6.7386 20.8807 9.2386 22 12 22Z" stroke="black" stroke-width="1.3" stroke-linejoin="round"/>
<path d="M12 14.3124V12.3124C13.6568 12.3124 15 10.9692 15 9.31238C15 7.65553 13.6568 6.31238 12 6.31238C10.3432 6.31238 9 7.65553 9 9.31238" stroke="#45E1B8" stroke-width="1.3" stroke-linecap="round" stroke-linejoin="round"/>
<path fill-rule="evenodd" clip-rule="evenodd" d="M12 19C12.5523 19 13 18.5523 13 18C13 17.4477 12.5523 17 12 17C11.4477 17 11 17.4477 11 18C11 18.5523 11.4477 19 12 19Z" fill="black"/>
</svg>
