<svg width="25" height="25" viewBox="0 0 25 25" fill="none" xmlns="http://www.w3.org/2000/svg">
<path d="M3.7627 5.24851C3.7627 4.74316 4.17193 4.3335 4.67676 4.3335H20.2158C20.7207 4.3335 21.1299 4.74316 21.1299 5.24851V16.2287C21.1299 16.7341 20.7207 17.1437 20.2158 17.1437H4.67676C4.17193 17.1437 3.7627 16.7341 3.7627 16.2287V5.24851Z" stroke="#4CC5A6" stroke-width="1.3" stroke-linecap="round" stroke-linejoin="round"/>
<path d="M3.7627 13.4836C3.7627 12.9783 4.17193 12.5686 4.67676 12.5686H20.2158C20.7207 12.5686 21.1299 12.9783 21.1299 13.4836V16.2287C21.1299 16.734 20.7207 17.1437 20.2158 17.1437H4.67676C4.17193 17.1437 3.7627 16.734 3.7627 16.2287V13.4836Z" stroke="#4CC5A6" stroke-width="1.3" stroke-linecap="round" stroke-linejoin="round"/>
<path d="M11.5322 7.07861L9.7041 9.36615" stroke="#4CC5A6" stroke-width="1.3" stroke-linecap="round" stroke-linejoin="round"/>
<path d="M14.2744 7.99365L12.9033 9.82368" stroke="#4CC5A6" stroke-width="1.3" stroke-linecap="round" stroke-linejoin="round"/>
<path d="M12.4463 15.7712C12.9511 15.7712 13.3604 15.3615 13.3604 14.8562C13.3604 14.3508 12.9511 13.9412 12.4463 13.9412C11.9415 13.9412 11.5322 14.3508 11.5322 14.8562C11.5322 15.3615 11.9415 15.7712 12.4463 15.7712Z" fill="#4CC5A6"/>
<path d="M9.24707 17.1438L7.87598 20.8039H17.0166L15.6455 17.1438" stroke="#4CC5A6" stroke-width="1.3" stroke-linecap="round" stroke-linejoin="round"/>
</svg>
