<svg width="25" height="25" viewBox="0 0 25 25" fill="none" xmlns="http://www.w3.org/2000/svg">
<path d="M11.0917 3.92341L11.8066 3.44628C12.3105 3.11003 12.9669 3.11003 13.4707 3.44628L14.1857 3.92341C16.9677 5.78001 18.6387 8.90557 18.6387 12.2526V17.4061H6.63867V12.2526C6.63867 8.90557 8.30967 5.78001 11.0917 3.92341Z" stroke="#999999" stroke-width="1.3" stroke-linecap="round" stroke-linejoin="round"/>
<path d="M12.6387 13.9025C14.2955 13.9025 15.6387 12.558 15.6387 10.8994C15.6387 9.24079 14.2955 7.89624 12.6387 7.89624C10.9818 7.89624 9.63867 9.24079 9.63867 10.8994C9.63867 12.558 10.9818 13.9025 12.6387 13.9025Z" stroke="#999999" stroke-width="1.3"/>
<path d="M6.63867 11.9004L3.63867 15.0123V17.4061H21.6387V15.0123L18.6387 11.9004" stroke="#999999" stroke-width="1.3" stroke-linecap="round" stroke-linejoin="round"/>
<path d="M12.6387 19.9087V22.9118" stroke="#999999" stroke-width="1.3" stroke-linecap="round" stroke-linejoin="round"/>
<path d="M8.63867 20.9097V21.9107" stroke="#999999" stroke-width="1.3" stroke-linecap="round" stroke-linejoin="round"/>
<path d="M16.6387 20.9097V21.9107" stroke="#999999" stroke-width="1.3" stroke-linecap="round" stroke-linejoin="round"/>
</svg>
