<svg width="11" height="11" viewBox="0 0 11 11" fill="none" xmlns="http://www.w3.org/2000/svg">
<path fill-rule="evenodd" clip-rule="evenodd" d="M4.41082 10.7491H4.41077C4.10535 10.7491 3.79716 10.5174 3.79716 9.99977V5.57522L0.465383 1.90066C0.367291 1.79247 0.298469 1.6807 0.260813 1.56845C0.211131 1.42035 0.215575 1.27293 0.273644 1.14214C0.331713 1.01134 0.438113 0.909093 0.581353 0.846448C0.689919 0.798974 0.819056 0.774902 0.965177 0.774902H9.48796C9.63408 0.774902 9.76322 0.798974 9.87177 0.84646C10.015 0.909093 10.1214 1.01134 10.1795 1.14214C10.2375 1.27293 10.242 1.42035 10.1923 1.56845C10.1547 1.6807 10.0858 1.79247 9.98775 1.90066L6.65594 5.57526V8.23729C6.65594 8.74042 6.36271 9.36086 5.97385 9.68049L4.93338 10.5358C4.76117 10.6773 4.58535 10.7491 4.41082 10.7491Z" fill="#BFBFBF"/>
</svg>
