<svg width="16" height="14" viewBox="0 0 16 14" fill="none" xmlns="http://www.w3.org/2000/svg">
<path d="M10.2285 3.75H2.61289L4.85477 1.50875L3.97852 0.625L0.228516 4.375L3.97852 8.125L4.85477 7.24063L2.61477 5H10.2285C11.2231 5 12.1769 5.39509 12.8802 6.09835C13.5834 6.80161 13.9785 7.75544 13.9785 8.75C13.9785 9.74456 13.5834 10.6984 12.8802 11.4017C12.1769 12.1049 11.2231 12.5 10.2285 12.5H5.22852V13.75H10.2285C11.5546 13.75 12.8264 13.2232 13.764 12.2855C14.7017 11.3479 15.2285 10.0761 15.2285 8.75C15.2285 7.42392 14.7017 6.15215 13.764 5.21447C12.8264 4.27678 11.5546 3.75 10.2285 3.75Z" fill="#212529"/>
</svg>
