<svg width="29" height="29" viewBox="0 0 29 29" fill="none" xmlns="http://www.w3.org/2000/svg">
<g clip-path="url(#clip0_2_2760)">
<path d="M23.0098 8.72503C22.6614 8.37543 22.2474 8.09804 21.7916 7.90877C21.3358 7.7195 20.8471 7.62207 20.3536 7.62207C19.86 7.62207 19.3713 7.7195 18.9155 7.90877C18.4597 8.09804 18.0457 8.37543 17.6973 8.72503L18.5848 9.61253C18.8175 9.37984 19.0937 9.19526 19.3978 9.06934C19.7018 8.94341 20.0276 8.87859 20.3567 8.87859C20.6857 8.87859 21.0116 8.94341 21.3156 9.06934C21.6196 9.19526 21.8959 9.37984 22.1286 9.61253C22.3612 9.84521 22.5458 10.1215 22.6718 10.4255C22.7977 10.7295 22.8625 11.0553 22.8625 11.3844C22.8625 11.7135 22.7977 12.0393 22.6718 12.3433C22.5458 12.6474 22.3612 12.9236 22.1286 13.1563L17.1286 18.1563C16.6595 18.6262 16.0229 18.8905 15.3589 18.8911C14.6949 18.8917 14.0579 18.6285 13.5879 18.1594C13.118 17.6903 12.8537 17.0537 12.8531 16.3897C12.8525 15.7257 13.1157 15.0887 13.5848 14.6188L14.4661 13.7313L13.5848 12.8438L12.6973 13.7313C12.3477 14.0797 12.0703 14.4936 11.881 14.9495C11.6918 15.4053 11.5944 15.894 11.5944 16.3875C11.5944 16.8811 11.6918 17.3698 11.881 17.8256C12.0703 18.2814 12.3477 18.6954 12.6973 19.0438C13.4045 19.7419 14.3599 20.1308 15.3536 20.125C15.849 20.1271 16.3399 20.0309 16.798 19.8421C17.2561 19.6533 17.6722 19.3756 18.0223 19.025L23.0223 14.025C23.7229 13.3202 24.1151 12.3662 24.1128 11.3724C24.1104 10.3787 23.7137 9.4265 23.0098 8.72503Z" fill="#212529"/>
<path d="M7.34731 20.0125C7.11393 19.7802 6.92874 19.5041 6.80237 19.2C6.67601 18.896 6.61096 18.5699 6.61096 18.2407C6.61096 17.9114 6.67601 17.5853 6.80237 17.2813C6.92874 16.9772 7.11393 16.7011 7.34731 16.4688L12.3473 11.4688C12.5796 11.2354 12.8557 11.0502 13.1598 10.9238C13.4639 10.7975 13.7899 10.7324 14.1192 10.7324C14.4485 10.7324 14.7745 10.7975 15.0786 10.9238C15.3826 11.0502 15.6588 11.2354 15.8911 11.4688C16.123 11.7029 16.3055 11.9812 16.4279 12.2872C16.5503 12.5931 16.61 12.9206 16.6036 13.25C16.6055 13.5805 16.5418 13.9081 16.4163 14.2139C16.2908 14.5196 16.1059 14.7974 15.8723 15.0313L14.5473 16.375L15.4348 17.2625L16.7598 15.9375C17.4651 15.2322 17.8614 14.2756 17.8614 13.2782C17.8614 12.2807 17.4651 11.3241 16.7598 10.6188C16.0545 9.91347 15.0979 9.51723 14.1004 9.51723C13.103 9.51723 12.1464 9.91347 11.4411 10.6188L6.44106 15.6188C6.09052 15.9673 5.81234 16.3816 5.62251 16.838C5.43268 17.2944 5.33496 17.7839 5.33496 18.2782C5.33496 18.7725 5.43268 19.2619 5.62251 19.7183C5.81234 20.1747 6.09052 20.589 6.44106 20.9375C7.15282 21.6303 8.11037 22.0124 9.10356 22C10.1055 22.001 11.0671 21.6055 11.7786 20.9L10.8911 20.0125C10.6588 20.2459 10.3826 20.4311 10.0786 20.5575C9.77451 20.6838 9.44847 20.7489 9.11918 20.7489C8.7899 20.7489 8.46386 20.6838 8.15979 20.5575C7.85572 20.4311 7.5796 20.2459 7.34731 20.0125Z" fill="#212529"/>
</g>
<defs>
<clipPath id="clip0_2_2760">
<rect width="20" height="20" fill="white" transform="translate(4.72852 4.5)"/>
</clipPath>
</defs>
</svg>
