<svg width="29" height="29" viewBox="0 0 29 29" fill="none" xmlns="http://www.w3.org/2000/svg">
<path d="M16.6035 13.25C16.9744 13.25 17.3369 13.14 17.6452 12.934C17.9536 12.728 18.1939 12.4351 18.3358 12.0925C18.4777 11.7499 18.5148 11.3729 18.4425 11.0092C18.3701 10.6455 18.1916 10.3114 17.9293 10.0492C17.6671 9.78695 17.333 9.60837 16.9693 9.53603C16.6056 9.46368 16.2286 9.50081 15.886 9.64273C15.5434 9.78464 15.2505 10.025 15.0445 10.3333C14.8385 10.6416 14.7285 11.0042 14.7285 11.375C14.7285 11.8723 14.9261 12.3492 15.2777 12.7008C15.6293 13.0525 16.1062 13.25 16.6035 13.25ZM16.6035 10.75C16.7271 10.75 16.848 10.7867 16.9507 10.8553C17.0535 10.924 17.1336 11.0216 17.1809 11.1358C17.2282 11.25 17.2406 11.3757 17.2165 11.4969C17.1924 11.6182 17.1329 11.7295 17.0455 11.8169C16.9581 11.9043 16.8467 11.9639 16.7254 11.988C16.6042 12.0121 16.4785 11.9997 16.3643 11.9524C16.2501 11.9051 16.1525 11.825 16.0838 11.7222C16.0152 11.6195 15.9785 11.4986 15.9785 11.375C15.9785 11.2092 16.0444 11.0503 16.1616 10.9331C16.2788 10.8158 16.4378 10.75 16.6035 10.75Z" fill="#212529"/>
<path d="M20.9785 7H8.47852C8.147 7 7.82905 7.1317 7.59463 7.36612C7.36021 7.60054 7.22852 7.91848 7.22852 8.25V20.75C7.22852 21.0815 7.36021 21.3995 7.59463 21.6339C7.82905 21.8683 8.147 22 8.47852 22H20.9785C21.31 22 21.628 21.8683 21.8624 21.6339C22.0968 21.3995 22.2285 21.0815 22.2285 20.75V8.25C22.2285 7.91848 22.0968 7.60054 21.8624 7.36612C21.628 7.1317 21.31 7 20.9785 7ZM20.9785 20.75H8.47852V17L11.6035 13.875L15.0973 17.3688C15.3315 17.6016 15.6483 17.7322 15.9785 17.7322C16.3087 17.7322 16.6256 17.6016 16.8598 17.3688L17.8535 16.375L20.9785 19.5V20.75ZM20.9785 17.7313L18.7348 15.4875C18.5006 15.2547 18.1837 15.124 17.8535 15.124C17.5233 15.124 17.2065 15.2547 16.9723 15.4875L15.9785 16.4813L12.4848 12.9875C12.2506 12.7547 11.9337 12.624 11.6035 12.624C11.2733 12.624 10.9565 12.7547 10.7223 12.9875L8.47852 15.2313V8.25H20.9785V17.7313Z" fill="#212529"/>
</svg>
