<svg width="29" height="29" viewBox="0 0 29 29" fill="none" xmlns="http://www.w3.org/2000/svg">
<path d="M12.2285 13.875H8.54727C8.66342 13.1015 8.93963 12.3607 9.35826 11.6999C9.77688 11.0391 10.3287 10.4729 10.9785 10.0375L12.0973 9.2875L11.4098 8.25L10.291 9C9.34931 9.62755 8.57708 10.4778 8.04285 11.4755C7.50861 12.4731 7.2289 13.5871 7.22852 14.7188V18.875C7.22852 19.2065 7.36021 19.5245 7.59463 19.7589C7.82905 19.9933 8.147 20.125 8.47852 20.125H12.2285C12.56 20.125 12.878 19.9933 13.1124 19.7589C13.3468 19.5245 13.4785 19.2065 13.4785 18.875V15.125C13.4785 14.7935 13.3468 14.4755 13.1124 14.2411C12.878 14.0067 12.56 13.875 12.2285 13.875ZM20.9785 13.875H17.2973C17.4134 13.1015 17.6896 12.3607 18.1083 11.6999C18.5269 11.0391 19.0787 10.4729 19.7285 10.0375L20.8473 9.2875L20.166 8.25L19.041 9C18.0993 9.62755 17.3271 10.4778 16.7928 11.4755C16.2586 12.4731 15.9789 13.5871 15.9785 14.7188V18.875C15.9785 19.2065 16.1102 19.5245 16.3446 19.7589C16.5791 19.9933 16.897 20.125 17.2285 20.125H20.9785C21.31 20.125 21.628 19.9933 21.8624 19.7589C22.0968 19.5245 22.2285 19.2065 22.2285 18.875V15.125C22.2285 14.7935 22.0968 14.4755 21.8624 14.2411C21.628 14.0067 21.31 13.875 20.9785 13.875Z" fill="#212529"/>
</svg>
