<svg width="29" height="29" viewBox="0 0 29 29" fill="none" xmlns="http://www.w3.org/2000/svg">
<path d="M14.7285 18.25H23.4785V19.5H14.7285V18.25ZM14.7285 9.5H23.4785V10.75H14.7285V9.5ZM9.72852 12V7H8.47852V7.625H7.22852V8.875H8.47852V12H7.22852V13.25H10.9785V12H9.72852ZM10.9785 22H7.22852V19.5C7.22852 19.1685 7.36021 18.8505 7.59463 18.6161C7.82905 18.3817 8.147 18.25 8.47852 18.25H9.72852V17H7.22852V15.75H9.72852C10.06 15.75 10.378 15.8817 10.6124 16.1161C10.8468 16.3505 10.9785 16.6685 10.9785 17V18.25C10.9785 18.5815 10.8468 18.8995 10.6124 19.1339C10.378 19.3683 10.06 19.5 9.72852 19.5H8.47852V20.75H10.9785V22Z" fill="#212529"/>
</svg>
