<svg width="29" height="29" viewBox="0 0 29 29" fill="none" xmlns="http://www.w3.org/2000/svg">
<path d="M9.10352 12C10.139 12 10.9785 11.1605 10.9785 10.125C10.9785 9.08947 10.139 8.25 9.10352 8.25C8.06798 8.25 7.22852 9.08947 7.22852 10.125C7.22852 11.1605 8.06798 12 9.10352 12Z" fill="#212529"/>
<path d="M9.10352 20.75C10.139 20.75 10.9785 19.9105 10.9785 18.875C10.9785 17.8395 10.139 17 9.10352 17C8.06798 17 7.22852 17.8395 7.22852 18.875C7.22852 19.9105 8.06798 20.75 9.10352 20.75Z" fill="#212529"/>
<path d="M14.7285 18.25H23.4785V19.5H14.7285V18.25ZM14.7285 9.5H23.4785V10.75H14.7285V9.5Z" fill="#212529"/>
</svg>
