<svg width="25" height="25" viewBox="0 0 25 25" fill="none" xmlns="http://www.w3.org/2000/svg">
<path d="M3.96533 4.6929C3.96533 4.18752 4.3799 3.77783 4.89131 3.77783H20.6329C21.1443 3.77783 21.5588 4.18752 21.5588 4.6929V15.6737C21.5588 16.1791 21.1443 16.5888 20.6329 16.5888H4.89131C4.3799 16.5888 3.96533 16.1791 3.96533 15.6737V4.6929Z" stroke="#999999" stroke-width="1.3" stroke-linecap="round" stroke-linejoin="round"/>
<path d="M3.96533 12.9283C3.96533 12.4229 4.3799 12.0132 4.89131 12.0132H20.6329C21.1443 12.0132 21.5588 12.4229 21.5588 12.9283V15.6735C21.5588 16.1789 21.1443 16.5885 20.6329 16.5885H4.89131C4.3799 16.5885 3.96533 16.1789 3.96533 15.6735V12.9283Z" stroke="#999999" stroke-width="1.3" stroke-linecap="round" stroke-linejoin="round"/>
<path d="M11.8361 6.52295L9.98413 8.81062" stroke="#999999" stroke-width="1.3" stroke-linecap="round" stroke-linejoin="round"/>
<path d="M14.6141 7.43799L13.2251 9.26813" stroke="#999999" stroke-width="1.3" stroke-linecap="round" stroke-linejoin="round"/>
<path d="M12.7622 15.2159C13.2736 15.2159 13.6881 14.8062 13.6881 14.3008C13.6881 13.7954 13.2736 13.3857 12.7622 13.3857C12.2508 13.3857 11.8362 13.7954 11.8362 14.3008C11.8362 14.8062 12.2508 15.2159 12.7622 15.2159Z" fill="#999999"/>
<path d="M9.52128 16.5884L8.13232 20.2487H17.3921L16.0031 16.5884" stroke="#999999" stroke-width="1.3" stroke-linecap="round" stroke-linejoin="round"/>
</svg>
