<svg width="28" height="30" viewBox="0 0 28 30" fill="none" xmlns="http://www.w3.org/2000/svg">
<g filter="url(#filter0_d_2_3085)">
<path d="M11.3483 3.80469H6.56261C6.03399 3.80469 5.60547 4.23366 5.60547 4.76283V9.55352C5.60547 10.0827 6.03399 10.5117 6.56261 10.5117H11.3483C11.8769 10.5117 12.3054 10.0827 12.3054 9.55352V4.76283C12.3054 4.23366 11.8769 3.80469 11.3483 3.80469Z" stroke="#4CC5A6" stroke-width="1.3" stroke-linejoin="round"/>
<path d="M11.3483 14.3442H6.56261C6.03399 14.3442 5.60547 14.7732 5.60547 15.3024V20.0931C5.60547 20.6222 6.03399 21.0512 6.56261 21.0512H11.3483C11.8769 21.0512 12.3054 20.6222 12.3054 20.0931V15.3024C12.3054 14.7732 11.8769 14.3442 11.3483 14.3442Z" stroke="#4CC5A6" stroke-width="1.3" stroke-linejoin="round"/>
<path d="M21.8769 3.80469H17.0912C16.5625 3.80469 16.134 4.23366 16.134 4.76283V9.55352C16.134 10.0827 16.5625 10.5117 17.0912 10.5117H21.8769C22.4055 10.5117 22.834 10.0827 22.834 9.55352V4.76283C22.834 4.23366 22.4055 3.80469 21.8769 3.80469Z" stroke="#4CC5A6" stroke-width="1.3" stroke-linejoin="round"/>
<path d="M21.8769 14.3442H17.0912C16.5625 14.3442 16.134 14.7732 16.134 15.3024V20.0931C16.134 20.6222 16.5625 21.0512 17.0912 21.0512H21.8769C22.4055 21.0512 22.834 20.6222 22.834 20.0931V15.3024C22.834 14.7732 22.4055 14.3442 21.8769 14.3442Z" stroke="#4CC5A6" stroke-width="1.3" stroke-linejoin="round"/>
</g>
<defs>
<filter id="filter0_d_2_3085" x="-1.78027" y="0.415527" width="32" height="32.0251" filterUnits="userSpaceOnUse" color-interpolation-filters="sRGB">
<feFlood flood-opacity="0" result="BackgroundImageFix"/>
<feColorMatrix in="SourceAlpha" type="matrix" values="0 0 0 0 0 0 0 0 0 0 0 0 0 0 0 0 0 0 127 0" result="hardAlpha"/>
<feOffset dy="4"/>
<feGaussianBlur stdDeviation="2"/>
<feComposite in2="hardAlpha" operator="out"/>
<feColorMatrix type="matrix" values="0 0 0 0 0 0 0 0 0 0 0 0 0 0 0 0 0 0 0.25 0"/>
<feBlend mode="normal" in2="BackgroundImageFix" result="effect1_dropShadow_2_3085"/>
<feBlend mode="normal" in="SourceGraphic" in2="effect1_dropShadow_2_3085" result="shape"/>
</filter>
</defs>
</svg>
