<svg width="19" height="19" viewBox="0 0 19 19" fill="none" xmlns="http://www.w3.org/2000/svg">
<path d="M18.1273 9.8575L13.1366 4.86625C12.9021 4.63187 12.5841 4.50021 12.2526 4.50021C11.921 4.50021 11.603 4.63187 11.3685 4.86625L8.01977 8.215L5.35352 0.75H4.10352L0.978516 9.5H2.22852L2.85289 7.625H6.60289L7.10477 9.13L2.59477 13.64C2.47864 13.7561 2.38652 13.8939 2.32367 14.0456C2.26082 14.1973 2.22847 14.3599 2.22847 14.5241C2.22847 14.6883 2.26082 14.8508 2.32367 15.0025C2.38652 15.1542 2.47864 15.292 2.59477 15.4081L5.43602 18.25H11.4298L18.1273 11.5519C18.2386 11.4406 18.3269 11.3085 18.3872 11.1631C18.4475 11.0177 18.4785 10.8618 18.4785 10.7044C18.4785 10.547 18.4475 10.3911 18.3872 10.2457C18.3269 10.1003 18.2386 9.96814 18.1273 9.85687V9.8575ZM3.26914 6.375L4.72602 2L6.18602 6.375H3.26914ZM10.9129 17H5.95352L3.47852 14.5238L7.42352 10.5794L12.3785 15.5337L10.9129 17ZM13.2629 14.65L8.30789 9.69562L12.2529 5.75L17.2073 10.7044L13.2629 14.65Z" fill="#212529"/>
</svg>
